<?xml version="1.0" encoding="utf-8"?>
<!-- Generator: Adobe Illustrator 24.1.0, SVG Export Plug-In . SVG Version: 6.00 Build 0)  -->
<svg version="1.1" xmlns="http://www.w3.org/2000/svg" xmlns:xlink="http://www.w3.org/1999/xlink" x="0px" y="0px"
	 viewBox="0 0 708.7 708.7" style="enable-background:new 0 0 708.7 708.7;" xml:space="preserve">
<style type="text/css">
	.st0{fill:#384760;}
	.st1{filter:url(#Adobe_OpacityMaskFilter);}
	.st2{fill:#FFFFFF;}
	.st3{mask:url(#SVGID_1_);}
	.st4{filter:url(#Adobe_OpacityMaskFilter_1_);}
	.st5{filter:url(#Adobe_OpacityMaskFilter_2_);}
	.st6{mask:url(#SVGID_3_);}
	.st7{filter:url(#Adobe_OpacityMaskFilter_3_);}
	.st8{mask:url(#SVGID_4_);}
	.st9{filter:url(#Adobe_OpacityMaskFilter_4_);}
	.st10{mask:url(#SVGID_5_);}
	.st11{filter:url(#Adobe_OpacityMaskFilter_5_);}
	.st12{mask:url(#SVGID_6_);}
	.st13{filter:url(#Adobe_OpacityMaskFilter_6_);}
	.st14{mask:url(#SVGID_7_);}
	.st15{clip-path:url(#SVGID_9_);fill:#001046;}
	.st16{clip-path:url(#SVGID_9_);fill:#001147;}
	.st17{clip-path:url(#SVGID_9_);fill:#001248;}
	.st18{clip-path:url(#SVGID_9_);fill:#011248;}
	.st19{clip-path:url(#SVGID_9_);fill:#011349;}
	.st20{clip-path:url(#SVGID_9_);fill:#01144A;}
	.st21{clip-path:url(#SVGID_9_);fill:#01154B;}
	.st22{clip-path:url(#SVGID_9_);fill:#02164C;}
	.st23{clip-path:url(#SVGID_9_);fill:#02174D;}
	.st24{clip-path:url(#SVGID_9_);fill:#02184E;}
	.st25{clip-path:url(#SVGID_9_);fill:#02194F;}
	.st26{clip-path:url(#SVGID_9_);fill:#031A50;}
	.st27{clip-path:url(#SVGID_9_);fill:#031B51;}
	.st28{clip-path:url(#SVGID_9_);fill:#031C52;}
	.st29{clip-path:url(#SVGID_9_);fill:#031D53;}
	.st30{clip-path:url(#SVGID_9_);fill:#041E54;}
	.st31{clip-path:url(#SVGID_9_);fill:#041F55;}
	.st32{clip-path:url(#SVGID_9_);fill:#042056;}
	.st33{clip-path:url(#SVGID_9_);fill:#042157;}
	.st34{clip-path:url(#SVGID_9_);fill:#052258;}
	.st35{clip-path:url(#SVGID_9_);fill:#052359;}
	.st36{clip-path:url(#SVGID_9_);fill:#05245A;}
	.st37{clip-path:url(#SVGID_9_);fill:#06255B;}
	.st38{clip-path:url(#SVGID_9_);fill:#06265C;}
	.st39{clip-path:url(#SVGID_9_);fill:#06275D;}
	.st40{clip-path:url(#SVGID_9_);fill:#06285E;}
	.st41{clip-path:url(#SVGID_9_);fill:#07295F;}
	.st42{clip-path:url(#SVGID_9_);fill:#072A60;}
	.st43{clip-path:url(#SVGID_9_);fill:#072B61;}
	.st44{clip-path:url(#SVGID_9_);fill:#072C62;}
	.st45{clip-path:url(#SVGID_9_);fill:#082D63;}
	.st46{clip-path:url(#SVGID_9_);fill:#082E64;}
	.st47{clip-path:url(#SVGID_9_);fill:#082F65;}
	.st48{clip-path:url(#SVGID_9_);fill:#083066;}
	.st49{clip-path:url(#SVGID_9_);fill:#093167;}
	.st50{clip-path:url(#SVGID_9_);fill:#093268;}
	.st51{clip-path:url(#SVGID_9_);fill:#093369;}
	.st52{clip-path:url(#SVGID_9_);fill:#09346A;}
	.st53{clip-path:url(#SVGID_9_);fill:#0A356B;}
	.st54{clip-path:url(#SVGID_9_);fill:#0A366C;}
	.st55{clip-path:url(#SVGID_9_);fill:#0A376D;}
	.st56{clip-path:url(#SVGID_9_);fill:#0B386E;}
	.st57{clip-path:url(#SVGID_9_);fill:#0B396F;}
	.st58{clip-path:url(#SVGID_9_);fill:#0B3A70;}
	.st59{clip-path:url(#SVGID_9_);fill:#0B3B71;}
	.st60{clip-path:url(#SVGID_9_);fill:#0C3C72;}
	.st61{clip-path:url(#SVGID_9_);fill:#0C3D73;}
	.st62{clip-path:url(#SVGID_9_);fill:#0C3E74;}
	.st63{clip-path:url(#SVGID_9_);fill:#0C3F75;}
	.st64{clip-path:url(#SVGID_9_);fill:#0D4076;}
	.st65{clip-path:url(#SVGID_9_);fill:#0D4177;}
	.st66{clip-path:url(#SVGID_9_);fill:#0D4278;}
	.st67{clip-path:url(#SVGID_9_);fill:#0D4379;}
	.st68{clip-path:url(#SVGID_9_);fill:#0E447A;}
	.st69{clip-path:url(#SVGID_9_);fill:#0E457B;}
	.st70{clip-path:url(#SVGID_9_);fill:#0E467C;}
	.st71{clip-path:url(#SVGID_9_);fill:#0F477D;}
	.st72{clip-path:url(#SVGID_9_);fill:#0F487E;}
	.st73{clip-path:url(#SVGID_9_);fill:#0F497F;}
	.st74{clip-path:url(#SVGID_9_);fill:#0F4A80;}
	.st75{clip-path:url(#SVGID_9_);fill:#104B81;}
	.st76{clip-path:url(#SVGID_9_);fill:#104C82;}
	.st77{clip-path:url(#SVGID_9_);fill:#104D83;}
	.st78{clip-path:url(#SVGID_9_);fill:#104E84;}
	.st79{clip-path:url(#SVGID_9_);fill:#114F85;}
	.st80{clip-path:url(#SVGID_9_);fill:#115086;}
	.st81{clip-path:url(#SVGID_9_);fill:#115187;}
	.st82{clip-path:url(#SVGID_9_);fill:#115288;}
	.st83{clip-path:url(#SVGID_9_);fill:#125389;}
	.st84{clip-path:url(#SVGID_9_);fill:#12548A;}
	.st85{clip-path:url(#SVGID_9_);fill:#12558B;}
	.st86{clip-path:url(#SVGID_9_);fill:#13568C;}
	.st87{clip-path:url(#SVGID_9_);fill:#13578D;}
	.st88{clip-path:url(#SVGID_9_);fill:#13588E;}
	.st89{clip-path:url(#SVGID_9_);fill:#13598F;}
	.st90{clip-path:url(#SVGID_9_);fill:#145A90;}
	.st91{clip-path:url(#SVGID_9_);fill:#145B91;}
	.st92{clip-path:url(#SVGID_9_);fill:#145C92;}
	.st93{clip-path:url(#SVGID_9_);fill:#145D93;}
	.st94{clip-path:url(#SVGID_9_);fill:#155E94;}
	.st95{clip-path:url(#SVGID_9_);fill:#155F95;}
	.st96{clip-path:url(#SVGID_9_);fill:#156197;}
	.st97{clip-path:url(#SVGID_9_);fill:#166298;}
	.st98{clip-path:url(#SVGID_9_);fill:#166399;}
	.st99{clip-path:url(#SVGID_9_);fill:#16649A;}
	.st100{clip-path:url(#SVGID_9_);fill:#16659B;}
	.st101{clip-path:url(#SVGID_9_);fill:#17669C;}
	.st102{clip-path:url(#SVGID_9_);fill:#17679D;}
	.st103{clip-path:url(#SVGID_9_);fill:#17689E;}
	.st104{clip-path:url(#SVGID_9_);fill:#17699F;}
	.st105{clip-path:url(#SVGID_9_);fill:#186AA0;}
	.st106{clip-path:url(#SVGID_9_);fill:#186BA1;}
	.st107{clip-path:url(#SVGID_9_);fill:#186CA2;}
	.st108{clip-path:url(#SVGID_9_);fill:#196DA3;}
	.st109{clip-path:url(#SVGID_9_);fill:#196EA4;}
	.st110{clip-path:url(#SVGID_9_);fill:#196FA5;}
	.st111{clip-path:url(#SVGID_9_);fill:#1970A6;}
	.st112{clip-path:url(#SVGID_9_);fill:#1A71A7;}
	.st113{clip-path:url(#SVGID_9_);fill:#1A73A9;}
	.st114{clip-path:url(#SVGID_9_);fill:#1A74AA;}
	.st115{clip-path:url(#SVGID_9_);fill:#1B75AB;}
	.st116{clip-path:url(#SVGID_9_);fill:#1B76AC;}
	.st117{clip-path:url(#SVGID_9_);fill:#1B77AD;}
	.st118{clip-path:url(#SVGID_9_);fill:#1B78AE;}
	.st119{clip-path:url(#SVGID_9_);fill:#1C79AF;}
	.st120{clip-path:url(#SVGID_9_);fill:#1C7AB0;}
	.st121{clip-path:url(#SVGID_9_);fill:#1C7BB1;}
	.st122{clip-path:url(#SVGID_9_);fill:#1D7CB2;}
	.st123{clip-path:url(#SVGID_9_);fill:#1D7DB3;}
	.st124{clip-path:url(#SVGID_9_);fill:#1D7EB4;}
	.st125{clip-path:url(#SVGID_9_);fill:#1D7FB5;}
	.st126{clip-path:url(#SVGID_9_);fill:#1E81B7;}
	.st127{clip-path:url(#SVGID_9_);fill:#1E82B8;}
	.st128{clip-path:url(#SVGID_9_);fill:#1E83B9;}
	.st129{clip-path:url(#SVGID_9_);fill:#1F84BA;}
	.st130{clip-path:url(#SVGID_9_);fill:#1F85BB;}
	.st131{clip-path:url(#SVGID_9_);fill:#1F86BC;}
	.st132{clip-path:url(#SVGID_9_);fill:#1F87BD;}
	.st133{clip-path:url(#SVGID_9_);fill:#2088BE;}
	.st134{clip-path:url(#SVGID_9_);fill:#2089BF;}
	.st135{clip-path:url(#SVGID_9_);fill:#208AC0;}
	.st136{clip-path:url(#SVGID_9_);fill:#218CC2;}
	.st137{clip-path:url(#SVGID_9_);fill:#218DC3;}
	.st138{clip-path:url(#SVGID_9_);fill:#218EC4;}
	.st139{clip-path:url(#SVGID_9_);fill:#228FC5;}
	.st140{clip-path:url(#SVGID_9_);fill:#2290C6;}
	.st141{clip-path:url(#SVGID_9_);fill:#2291C7;}
	.st142{clip-path:url(#SVGID_9_);fill:#2292C8;}
	.st143{clip-path:url(#SVGID_9_);fill:#2393C9;}
	.st144{clip-path:url(#SVGID_9_);fill:#2394CA;}
	.st145{clip-path:url(#SVGID_9_);fill:#2396CC;}
	.st146{clip-path:url(#SVGID_9_);fill:#2497CD;}
	.st147{clip-path:url(#SVGID_9_);fill:#2498CE;}
	.st148{clip-path:url(#SVGID_9_);fill:#2499CF;}
	.st149{clip-path:url(#SVGID_9_);fill:#249AD0;}
	.st150{clip-path:url(#SVGID_9_);fill:#259BD1;}
	.st151{clip-path:url(#SVGID_9_);fill:#259CD2;}
	.st152{clip-path:url(#SVGID_9_);fill:#259DD3;}
	.st153{clip-path:url(#SVGID_9_);fill:#269FD5;}
	.st154{clip-path:url(#SVGID_9_);fill:#26A0D6;}
	.st155{clip-path:url(#SVGID_9_);fill:#26A1D7;}
	.st156{clip-path:url(#SVGID_9_);fill:#27A2D8;}
	.st157{clip-path:url(#SVGID_9_);fill:#27A3D9;}
	.st158{clip-path:url(#SVGID_9_);fill:#27A4DA;}
	.st159{clip-path:url(#SVGID_9_);fill:#27A5DB;}
	.st160{clip-path:url(#SVGID_9_);fill:#28A6DC;}
	.st161{clip-path:url(#SVGID_9_);fill:#28A8DE;}
	.st162{clip-path:url(#SVGID_9_);fill:#28A9DF;}
	.st163{clip-path:url(#SVGID_9_);fill:#29AAE0;}
	.st164{clip-path:url(#SVGID_9_);fill:#29ABE1;}
	.st165{clip-path:url(#SVGID_9_);fill:#29ACE2;}
	.st166{clip-path:url(#SVGID_9_);fill:#2AADE3;}
	.st167{clip-path:url(#SVGID_9_);fill:#2AAEE4;}
	.st168{clip-path:url(#SVGID_9_);fill:#2AB0E6;}
	.st169{clip-path:url(#SVGID_9_);fill:#2AB1E7;}
	.st170{clip-path:url(#SVGID_9_);fill:#2BB2E8;}
	.st171{clip-path:url(#SVGID_9_);fill:#2BB3E9;}
	.st172{clip-path:url(#SVGID_9_);fill:#2BB4EA;}
	.st173{clip-path:url(#SVGID_9_);fill:#2CB5EB;}
	.st174{clip-path:url(#SVGID_9_);fill:#2CB6EC;}
	.st175{clip-path:url(#SVGID_9_);fill:#2CB8EE;}
	.st176{clip-path:url(#SVGID_9_);fill:#2DB9EF;}
	.st177{clip-path:url(#SVGID_9_);fill:#2DBAF0;}
	.st178{clip-path:url(#SVGID_9_);fill:#2DBBF1;}
	.st179{clip-path:url(#SVGID_9_);fill:#2DBCF2;}
	.st180{clip-path:url(#SVGID_9_);fill:#2EBDF3;}
	.st181{clip-path:url(#SVGID_9_);fill:#2EBFF5;}
	.st182{clip-path:url(#SVGID_9_);fill:#2EC0F6;}
	.st183{clip-path:url(#SVGID_9_);fill:#2FC1F7;}
	.st184{clip-path:url(#SVGID_9_);fill:#2FC2F8;}
	.st185{fill:#0C1282;}
	.st186{fill:#BF1713;}
	.st187{filter:url(#Adobe_OpacityMaskFilter_7_);}
	.st188{mask:url(#SVGID_10_);}
	.st189{fill:#7A0505;}
	.st190{fill:#BDA700;}
	.st191{fill:#FFEF08;}
	.st192{filter:url(#Adobe_OpacityMaskFilter_8_);}
	.st193{fill:#F7DBCB;}
	.st194{fill:#756A59;}
	.st195{fill:#FFF4F0;}
	.st196{filter:url(#Adobe_OpacityMaskFilter_9_);}
	.st197{mask:url(#SVGID_12_);}
	.st198{fill:#C49D87;}
	.st199{fill:#C1181A;}
	.st200{fill:#C01818;}
	.st201{filter:url(#Adobe_OpacityMaskFilter_10_);}
	.st202{mask:url(#SVGID_13_);}
	.st203{filter:url(#Adobe_OpacityMaskFilter_11_);}
	.st204{mask:url(#SVGID_14_);}
	.st205{fill:#1D1D1B;}
	.st206{fill:#473224;}
	.st207{fill:#3D2717;}
	.st208{filter:url(#Adobe_OpacityMaskFilter_12_);}
	.st209{mask:url(#SVGID_15_);}
	.st210{filter:url(#Adobe_OpacityMaskFilter_13_);}
	.st211{mask:url(#SVGID_16_);}
	.st212{fill:#C99841;}
	.st213{fill:#9E4E3E;}
	.st214{fill:#F7D42B;}
	.st215{fill:#D1A371;}
	.st216{fill:#895B3D;}
	.st217{fill:#F7DBCB;stroke:#756A59;stroke-miterlimit:10;}
	.st218{fill:#5CD3FF;stroke:#101768;stroke-width:0.5;stroke-miterlimit:10;}
</style>
<g id="Warstwa_1">
</g>
<g id="Warstwa_2">
</g>
<g id="Warstwa_3">
	<g>
		<g>
			<g>
				<path class="st0" d="M143.8,410.9c0.1,3.2,0.3,6.3,0.4,9.4c0.5,10.4,1,20.9,1.5,31.5l32.2-1.6l-1.6-32.2c3.6-0.2,7.3-0.7,11-1.4
					c-8.6-1-17.1-2-25.8-3.2C155.7,412.5,149.8,411.8,143.8,410.9z"/>
			</g>
			<g>
				<path class="st0" d="M198.5,413.6c3.5-1.3,6.8-2.9,9.8-4.9c3-2,5.6-4.3,7.8-7c2.2-2.7,3.9-5.8,5-9.3c1.2-3.5,1.6-7.5,1.4-12
					c-0.2-4.1-1-7.8-2.3-11c-1.3-3.2-3.1-6.1-5.2-8.6c-2.2-2.5-4.7-4.6-7.6-6.3c-2.9-1.7-6-3.1-9.3-4.2c-3.3-1.1-6.7-1.8-10.3-2.2
					c-3.6-0.4-7.1-0.5-10.7-0.3c-6.3,0.3-12.3,1.1-18.2,2.2c-5.8,1.2-11.7,2.8-17.5,4.8c0,5.7,0.2,11.4,0.5,17
					c0.3,5.6,0.6,11.2,0.8,16.8c0.3,7.4,0.6,14.8,1,22.2c6,0.9,11.9,1.6,17.7,2.5c8.6,1.2,17.2,2.3,25.8,3.2c0.1,0,0.1,0,0.2,0
					C191.3,415.9,195,414.9,198.5,413.6z M179.8,396.6c-0.6,0-1.3,0.1-1.9,0.1c-0.6,0-1.2,0-1.9,0l-0.2-20.2
					c0.9-0.3,1.9-0.5,2.9-0.7c1-0.2,2-0.3,3-0.4c2.9-0.1,5.3,0.6,7.2,2.2c1.9,1.6,2.9,3.9,3.1,6.9c0.1,1.7-0.2,3.3-0.8,4.8
					c-0.6,1.4-1.5,2.7-2.7,3.8c-1.1,1.1-2.5,2-4,2.6C183,396.1,181.4,396.5,179.8,396.6z"/>
			</g>
			<g>
				<path class="st0" d="M230.2,444.9l29-3l0.6-20.4c-10.3-0.2-20.6-0.6-30.9-1.2L230.2,444.9z"/>
			</g>
			<g>
				<path class="st0" d="M225.4,351.3l3.5,69c10.3,0.6,20.6,1,30.9,1.2l2.2-74L225.4,351.3z"/>
			</g>
			<g>
				<path class="st0" d="M318.7,410.5l-17.1,0.9l0.2-10.1l20.7-1.8l0.4-21.5l-20.6,1.1l0.2-8.7l29.2-3c0.1-4.3,0.2-8.6,0.2-12.9
					c0-4.2,0-8.5,0.1-12.9l-63.6,3.3l2.2,76.8c19.9,0,39.9-0.8,60.1-2.7c0-3,0-6,0.1-9L318.7,410.5z"/>
			</g>
			<g>
				<path class="st0" d="M270.6,421.6l0.7,22.9l59.4-4.4c0-5,0-10,0-15c0-2,0-4.1,0-6.1C310.5,420.7,290.6,421.6,270.6,421.6z"/>
			</g>
			<g>
				<path class="st0" d="M338.2,418.1c0.2,7.2,0.4,14.5,0.7,21.8l29.7-1.5l-0.2-23.7c-7.1,0.9-14.3,1.8-21.4,2.5
					C344,417.5,341.1,417.8,338.2,418.1z"/>
			</g>
			<g>
				<path class="st0" d="M389,437.7l30.7-7.7l-13.3-21.2c-9.2,1.6-18.4,3-27.7,4.4L389,437.7z"/>
			</g>
			<g>
				<path class="st0" d="M409.1,395.3c2-2.2,3.6-4.5,4.8-7c1.2-2.5,2-5.2,2.5-8.2c0.5-3,0.6-6.2,0.4-9.8c-0.3-5.7-1.7-10.7-4.2-14.9
					c-2.5-4.2-5.7-7.7-9.6-10.4c-3.9-2.7-8.4-4.7-13.3-5.9c-5-1.2-10.1-1.7-15.3-1.4c-3.4,0.2-6.7,0.4-10,0.8
					c-3.2,0.3-6.4,0.8-9.5,1.4c-3.1,0.6-6.2,1.4-9.3,2.3c-3.1,0.9-6.2,2.1-9.4,3.5c0,5.3,0.1,10.6,0.3,15.8
					c0.2,5.2,0.3,10.5,0.5,15.7c0.3,10.5,0.6,21,0.9,31.4c0.1,3.2,0.2,6.4,0.3,9.6c2.9-0.3,5.8-0.6,8.7-1c7.2-0.7,14.3-1.5,21.4-2.5
					l0-5.1l8.5-0.7l1.9,4.4c9.3-1.3,18.5-2.8,27.7-4.4l-4.6-7.3C404.7,399.6,407.1,397.5,409.1,395.3z M384.9,380.1
					c-1,1.7-2.2,3.1-3.8,4.3s-3.4,2-5.4,2.6c-2,0.6-4,1-6,1.1l-1.7,0.1l-0.2-25.7c0.8-0.3,1.7-0.5,2.5-0.6c0.9-0.2,1.8-0.3,2.7-0.3
					c2.1-0.1,3.9,0.1,5.5,0.7c1.6,0.6,2.9,1.4,4,2.6c1.1,1.1,1.9,2.5,2.6,4.1c0.6,1.6,1,3.3,1.1,5.3
					C386.2,376.4,385.8,378.4,384.9,380.1z"/>
			</g>
			<g>
				<path class="st0" d="M507,383.5c-0.3-6.7-1.7-12.7-4.1-18.1c-2.4-5.3-5.7-9.8-9.8-13.5c-4.1-3.6-8.9-6.4-14.5-8.1
					c-5.6-1.8-11.7-2.5-18.4-2.2c-4.1,0.2-8,1-11.7,2.3c-3.7,1.3-7,3.1-10.1,5.4c-3.1,2.2-5.9,4.8-8.3,7.8c-2.4,3-4.5,6.2-6.1,9.7
					c-1.6,3.5-2.8,7.2-3.6,11.1c-0.8,3.9-1.1,7.8-0.8,11.8c0.2,4.1,0.9,8,2.2,11.7c0.5,1.5,1.1,3,1.7,4.4
					c10.5-1.9,20.9-3.9,31.4-5.9c-0.5-0.5-1-1-1.5-1.6c-1.2-1.5-2.1-3.2-2.8-5.1c-0.7-1.9-1-3.8-1.1-5.8c-0.1-2,0.1-4,0.7-5.8
					c0.6-1.8,1.4-3.5,2.6-4.9c1.1-1.4,2.6-2.6,4.2-3.4c1.7-0.9,3.6-1.4,5.7-1.5c2.1-0.1,4,0.2,5.7,1.1c1.7,0.8,3.1,1.9,4.3,3.3
					c1.2,1.4,2.1,3,2.8,4.8c0.7,1.8,1.1,3.7,1.2,5.7c0.1,2-0.1,4-0.7,5.9c-0.4,1.3-0.9,2.5-1.5,3.6c8-1.5,16-2.9,24.2-4.3
					c2.8-0.5,5.6-0.9,8.4-1.3C507.1,388.4,507.1,386,507,383.5z"/>
			</g>
			<g>
				<path class="st0" d="M474.3,396.4c-0.3,0.5-0.6,1-1,1.5c-1.1,1.5-2.5,2.7-4.2,3.7c-1.7,0.9-3.6,1.5-5.8,1.6
					c-2.2,0.1-4.1-0.3-5.8-1.2c-1-0.5-1.9-1.2-2.8-2c-10.5,2-21,4-31.4,5.9c0.9,2.1,2,4.1,3.2,6c2,3.2,4.4,6.1,7.2,8.6
					c2.8,2.6,5.9,4.7,9.2,6.4c3.4,1.7,6.9,3,10.8,3.9c3.8,0.9,7.8,1.2,11.9,1c4.3-0.2,8.3-1,12.1-2.3c3.8-1.3,7.2-3.1,10.4-5.3
					c3.1-2.2,5.9-4.8,8.4-7.7c2.5-3,4.5-6.2,6.1-9.7c1.6-3.5,2.8-7.2,3.6-11.2c0.3-1.6,0.5-3.2,0.7-4.9c-2.8,0.4-5.6,0.8-8.4,1.3
					C490.3,393.5,482.3,394.9,474.3,396.4z"/>
			</g>
			<g>
				<path class="st0" d="M513.6,430.9l31.1-1.6l0.3-41.6c-10.7,0.3-21.5,1-32.5,2.3L513.6,430.9z"/>
			</g>
			<g>
				<path class="st0" d="M603,389.9l0.1-61.7l-32.5,2.8l1.3,47l-26.4-48.5l-34.4,3.4l1.5,57.1c10.9-1.3,21.7-2.1,32.5-2.3l0.1-9.6
					l4.2,9.5C567.4,387.4,585.2,388.3,603,389.9z"/>
			</g>
			<g>
				<path class="st0" d="M549.3,387.6l17.6,39.6l36-5.2l0.1-32.2C585.2,388.3,567.4,387.4,549.3,387.6z"/>
			</g>
		</g>
		<g>
			<path class="st190" d="M157.6,405.9c0.1,3.2,0.3,6.3,0.4,9.4c0.5,10.4,1,20.9,1.5,31.5l32.2-1.6l-1.6-32.2
				c3.6-0.2,7.3-0.7,11-1.4c-8.6-1-17.1-2-25.8-3.2C169.5,407.5,163.6,406.8,157.6,405.9z"/>
			<path class="st190" d="M159.6,448.7c-1,0-1.8-0.8-1.9-1.8c-0.5-10.5-1.1-21-1.5-31.5l-0.4-9.5c0-0.6,0.2-1.1,0.6-1.5
				c0.4-0.4,1-0.5,1.5-0.5c2.5,0.4,5.1,0.7,7.6,1c3.4,0.5,6.8,0.9,10.2,1.4c8.4,1.2,17,2.3,25.7,3.2c0.9,0.1,1.6,0.9,1.7,1.8
				c0,0.9-0.6,1.7-1.5,1.9c-3.2,0.6-6.3,1-9.4,1.3l1.6,30.3c0.1,1-0.7,1.9-1.8,2L159.6,448.7C159.6,448.7,159.6,448.7,159.6,448.7z
				 M159.6,408.1l0.3,7.2c0.5,9.8,0.9,19.7,1.4,29.6l28.4-1.5l-1.6-30.3c0-0.4,0.1-0.8,0.3-1.1c-4.5-0.6-9-1.2-13.4-1.8
				c-3.3-0.5-6.7-1-10.1-1.4C163.2,408.6,161.4,408.4,159.6,408.1z"/>
		</g>
		<g>
			<path class="st191" d="M212.2,408.5c3.5-1.3,6.8-2.9,9.8-4.9c3-2,5.6-4.3,7.8-7c2.2-2.7,3.9-5.8,5-9.3c1.2-3.5,1.6-7.5,1.4-12
				c-0.2-4.1-1-7.8-2.3-11c-1.3-3.2-3.1-6.1-5.2-8.6c-2.2-2.5-4.7-4.6-7.6-6.3c-2.9-1.7-6-3.1-9.3-4.2c-3.3-1.1-6.7-1.8-10.3-2.2
				c-3.6-0.4-7.1-0.5-10.7-0.3c-6.3,0.3-12.3,1.1-18.2,2.2c-5.8,1.2-11.7,2.8-17.5,4.8c0,5.7,0.2,11.4,0.5,17
				c0.3,5.6,0.6,11.2,0.8,16.8c0.3,7.4,0.6,14.8,1,22.2c6,0.9,11.9,1.6,17.7,2.5c8.6,1.2,17.2,2.3,25.8,3.2c0.1,0,0.1,0,0.2,0
				C205.1,410.9,208.7,409.9,212.2,408.5z M193.5,391.6c-0.6,0-1.3,0.1-1.9,0.1c-0.6,0-1.2,0-1.9,0l-0.2-20.2
				c0.9-0.3,1.9-0.5,2.9-0.7c1-0.2,2-0.3,3-0.4c2.9-0.1,5.3,0.6,7.2,2.2c1.9,1.6,2.9,3.9,3.1,6.9c0.1,1.7-0.2,3.3-0.8,4.8
				c-0.6,1.4-1.5,2.7-2.7,3.8c-1.1,1.1-2.5,2-4,2.6C196.8,391.1,195.2,391.5,193.5,391.6z"/>
			<path class="st190" d="M201.3,413.5l-0.4,0c-8.7-1-17.4-2.1-25.8-3.3c-3.3-0.5-6.7-1-10.1-1.4c-2.5-0.3-5.1-0.7-7.6-1l-1.5-0.2
				l-0.1-1.6c-0.3-7.4-0.7-14.7-1-22.2c-0.2-5.6-0.5-11.2-0.8-16.8c-0.3-5.6-0.5-11.4-0.5-17.1l0-1.3l1.3-0.4
				c5.9-2.1,11.8-3.7,17.7-4.9c5.9-1.2,12.1-2,18.4-2.3c3.6-0.2,7.3-0.1,11,0.3c3.7,0.4,7.3,1.2,10.7,2.3c3.4,1.1,6.7,2.6,9.7,4.4
				c3,1.8,5.7,4.1,8,6.7c2.3,2.6,4.2,5.7,5.6,9.1c1.4,3.4,2.2,7.3,2.5,11.6c0.2,4.7-0.3,8.9-1.5,12.7c-1.2,3.7-3,7.1-5.3,9.9
				c-2.3,2.8-5.1,5.3-8.3,7.4c-3.1,2-6.6,3.7-10.2,5.1c-3.6,1.3-7.4,2.4-11.3,3.1L201.3,413.5z M159.4,404.3c2,0.3,4,0.6,6,0.8
				c3.4,0.5,6.8,0.9,10.2,1.4c8.3,1.2,16.8,2.2,25.4,3.2c3.7-0.7,7.2-1.7,10.6-2.9h0c3.4-1.3,6.5-2.8,9.5-4.7
				c2.9-1.8,5.3-4.1,7.4-6.6c2-2.5,3.6-5.4,4.7-8.7c1.1-3.3,1.5-7.1,1.3-11.3c-0.2-3.9-0.9-7.3-2.2-10.4c-1.3-3-2.9-5.7-4.9-8
				c-2-2.3-4.4-4.3-7.1-5.9c-2.7-1.6-5.7-3-8.9-4c-3.2-1-6.5-1.7-9.9-2.1c-3.5-0.4-7-0.5-10.4-0.3c-6.1,0.3-12.1,1.1-17.9,2.2
				c-5.3,1.1-10.7,2.5-15.9,4.3c0,5.2,0.2,10.4,0.5,15.5c0.3,5.6,0.6,11.3,0.8,16.9C158.8,390.6,159.1,397.5,159.4,404.3z
				 M191.1,393.5c-0.5,0-0.9,0-1.4-0.1l-1.7-0.2l-0.2-23.3l1.3-0.4c1-0.3,2-0.6,3.1-0.8c1.1-0.2,2.2-0.4,3.3-0.4
				c3.4-0.2,6.2,0.7,8.5,2.6c2.3,1.9,3.6,4.7,3.8,8.2c0.1,2-0.2,3.9-1,5.6c-0.7,1.7-1.8,3.1-3.1,4.4c-1.3,1.3-2.8,2.3-4.6,3
				c-1.7,0.7-3.5,1.1-5.4,1.2l-1.9,0.1C191.5,393.5,191.3,393.5,191.1,393.5z M191.5,372.8l0.2,16.9l1.8-0.1
				c1.4-0.1,2.8-0.4,4.1-0.9c1.3-0.5,2.4-1.3,3.4-2.2c1-0.9,1.7-2,2.3-3.2c0.5-1.2,0.7-2.5,0.7-3.9c-0.1-2.5-0.9-4.3-2.4-5.5
				c-1.5-1.3-3.5-1.8-5.9-1.7c-0.9,0-1.8,0.2-2.7,0.4C192.4,372.6,192,372.7,191.5,372.8z"/>
		</g>
		<g>
			<path class="st190" d="M244,439.9l29-3l0.6-20.4c-10.3-0.2-20.6-0.6-30.9-1.2L244,439.9z"/>
			<path class="st190" d="M242.2,442l-1.5-28.7l2.1,0.1c10.2,0.6,20.6,1,30.8,1.2l1.9,0l-0.7,24L242.2,442z M244.7,417.3l1.1,20.6
				l25.4-2.6l0.5-16.9C262.7,418.1,253.6,417.8,244.7,417.3z"/>
		</g>
		<g>
			<path class="st191" d="M239.2,346.3l3.5,69c10.3,0.6,20.6,1,30.9,1.2l2.2-74L239.2,346.3z"/>
			<path class="st190" d="M275.4,418.4l-1.9,0c-10.3-0.2-20.7-0.6-31-1.2l-1.7-0.1l-3.7-72.4l40.5-4.2L275.4,418.4z M244.5,413.5
				c9,0.5,18.2,0.9,27.3,1.1l2.1-70l-32.7,3.4L244.5,413.5z"/>
		</g>
		<g>
			<path class="st191" d="M332.4,405.5l-17.1,0.9l0.2-10.1l20.7-1.8l0.4-21.5l-20.6,1.1l0.2-8.7l29.2-3c0.1-4.3,0.2-8.6,0.2-12.9
				c0-4.2,0-8.5,0.1-12.9l-63.6,3.3l2.2,76.8c19.9,0,39.9-0.8,60.1-2.7c0-3,0-6,0.1-9L332.4,405.5z"/>
			<path class="st190" d="M285.3,418.5c-0.3,0-0.6,0-0.9,0l-1.8,0l-2.3-80.4l67.5-3.5l0,2c-0.1,4.3-0.1,8.6-0.1,12.9
				c0,4.3-0.1,8.6-0.2,12.9l-0.1,1.6l-29.2,3l-0.1,5l20.5-1.1l-0.5,25.2l-20.7,1.8l-0.1,6.4l29.2-1.5l0,2c0,2.3,0,4.6,0,6.9l0,3.8
				l-1.7,0.2C325.3,417.5,305.3,418.5,285.3,418.5z M284.1,341.6l2.1,73.1c19,0,38-0.9,56.4-2.6l0-0.4c0-1.6,0-3.3,0-4.9l-29.3,1.5
				l0.2-13.8l20.7-1.8l0.3-17.8l-20.6,1.1l0.3-12.4l29.2-3c0.1-3.7,0.2-7.5,0.2-11.2c0-3.6,0-7.2,0.1-10.9L284.1,341.6z"/>
		</g>
		<g>
			<path class="st190" d="M284.4,416.6l0.7,22.9l59.4-4.4c0-5,0-10,0-15c0-2,0-4.1,0-6.1C324.3,415.7,304.3,416.6,284.4,416.6z"/>
			<path class="st190" d="M283.2,441.5l-0.8-26.8l1.9,0c20.2,0.1,40.3-0.9,60-2.7l2.1-0.2l0,8.2c0,4.9-0.1,10,0,15l0,1.8
				L283.2,441.5z M286.3,418.4l0.6,19l55.7-4.2c0-4.5,0-9,0-13.3l0-4C324.2,417.6,305.3,418.4,286.3,418.4z"/>
		</g>
		<g>
			<path class="st190" d="M352,413.1c0.2,7.2,0.4,14.5,0.7,21.8l29.7-1.5l-0.2-23.7c-7.1,0.9-14.3,1.8-21.4,2.5
				C357.8,412.5,354.9,412.8,352,413.1z"/>
			<path class="st190" d="M350.8,436.8l-0.1-1.9c-0.2-7.3-0.4-14.5-0.7-21.8l-0.1-1.7l2-0.2c2.8-0.3,5.6-0.6,8.5-0.9
				c6.8-0.7,13.8-1.5,21.4-2.5l2.1-0.3l0.2,27.6L350.8,436.8z M353.9,414.8c0.2,6,0.4,12.1,0.5,18.1l26-1.3l-0.2-19.8
				c-6.9,0.9-13.3,1.6-19.4,2.2C358.5,414.3,356.2,414.5,353.9,414.8z"/>
		</g>
		<g>
			<path class="st190" d="M402.7,432.7l30.7-7.7l-13.3-21.2c-9.2,1.6-18.4,3-27.7,4.4L402.7,432.7z"/>
			<path class="st190" d="M401.6,434.9l-11.8-28.2l2.4-0.3c8.7-1.3,17.8-2.7,27.6-4.4l1.2-0.2l15.4,24.4L401.6,434.9z M395.1,409.8
				l8.7,20.7l26.7-6.6L419.2,406C410.7,407.4,402.8,408.7,395.1,409.8z"/>
		</g>
		<g>
			<path class="st191" d="M422.9,390.3c2-2.2,3.6-4.5,4.8-7c1.2-2.5,2-5.2,2.5-8.2c0.5-3,0.6-6.2,0.4-9.8
				c-0.3-5.7-1.7-10.7-4.2-14.9c-2.5-4.2-5.7-7.7-9.6-10.4c-3.9-2.7-8.4-4.7-13.3-5.9c-5-1.2-10.1-1.7-15.3-1.4
				c-3.4,0.2-6.7,0.4-10,0.8c-3.2,0.3-6.4,0.8-9.5,1.4c-3.1,0.6-6.2,1.4-9.3,2.3c-3.1,0.9-6.2,2.1-9.4,3.5c0,5.3,0.1,10.6,0.3,15.8
				c0.2,5.2,0.3,10.5,0.5,15.7c0.3,10.5,0.6,21,0.9,31.4c0.1,3.2,0.2,6.4,0.3,9.6c2.9-0.3,5.8-0.6,8.7-1c7.2-0.7,14.3-1.5,21.4-2.5
				l0-5.1l8.5-0.7l1.9,4.4c9.3-1.3,18.5-2.8,27.7-4.4l-4.6-7.3C418.5,394.6,420.9,392.5,422.9,390.3z M398.7,375.1
				c-1,1.7-2.2,3.1-3.8,4.3s-3.4,2-5.4,2.6c-2,0.6-4,1-6,1.1l-1.7,0.1l-0.2-25.7c0.8-0.3,1.7-0.5,2.5-0.6c0.9-0.2,1.8-0.3,2.7-0.3
				c2.1-0.1,3.9,0.1,5.5,0.7c1.6,0.6,2.9,1.4,4,2.6c1.1,1.1,1.9,2.5,2.6,4.1c0.6,1.6,1,3.3,1.1,5.3
				C400,371.4,399.6,373.4,398.7,375.1z"/>
			<path class="st190" d="M350.2,415.2l-0.4-11.6c-0.3-10.4-0.6-20.9-0.9-31.4l-0.5-15.7c-0.2-5.2-0.3-10.5-0.3-15.8l0-1.2l1.1-0.5
				c3.2-1.4,6.4-2.6,9.6-3.5c3.1-1,6.3-1.7,9.5-2.4c3.2-0.6,6.4-1.1,9.7-1.4c3.2-0.3,6.6-0.6,10.1-0.8c5.4-0.3,10.7,0.2,15.9,1.4
				c5.2,1.2,9.9,3.3,14,6.1c4.1,2.8,7.6,6.5,10.2,11c2.6,4.5,4.1,9.8,4.5,15.8c0.2,3.7,0,7.1-0.5,10.2c-0.5,3.1-1.4,6.1-2.7,8.7
				c-1.3,2.7-3,5.2-5.1,7.5c-1.7,1.9-3.8,3.8-6.2,5.5l5.1,8.2l-2.8,0.5c-9.9,1.7-18.9,3.1-27.7,4.4l-1.4,0.2l-1.9-4.5l-5.4,0.5l0,5
				l-1.6,0.2c-7.7,1-14.8,1.8-21.5,2.5c-2.8,0.3-5.6,0.6-8.5,0.9L350.2,415.2z M351.9,341.9c0,4.9,0.1,9.7,0.3,14.5l0.5,15.7
				c0.3,10.5,0.6,21,0.9,31.4l0.2,7.6c2.2-0.2,4.4-0.5,6.7-0.7c6.3-0.6,12.7-1.3,19.8-2.2l0-5.2l11.6-1l1.8,4.3
				c7.5-1.1,15.2-2.3,23.4-3.7l-4-6.4l1.5-1c2.8-1.9,5.1-4,7.1-6.1c1.9-2,3.4-4.2,4.5-6.6c1.1-2.3,1.9-4.9,2.4-7.7
				c0.4-2.8,0.6-6,0.4-9.4c-0.3-5.4-1.6-10.2-3.9-14.1c-2.3-4-5.4-7.2-9.1-9.8c-3.7-2.6-8-4.4-12.7-5.6c-4.8-1.2-9.8-1.6-14.8-1.3
				c-3.4,0.2-6.7,0.4-9.9,0.7c-3.2,0.3-6.3,0.8-9.4,1.4c-3.1,0.6-6.1,1.3-9.1,2.3C357.3,339.8,354.6,340.8,351.9,341.9z
				 M379.9,385.1l-0.2-29.1l1.3-0.4c0.9-0.3,1.8-0.5,2.8-0.7c1-0.2,1.9-0.3,2.9-0.3c2.3-0.1,4.4,0.2,6.2,0.8c1.8,0.7,3.4,1.7,4.7,3
				c1.3,1.3,2.3,2.9,3,4.7c0.7,1.8,1.1,3.7,1.2,5.9c0.1,2.6-0.4,5-1.5,7c-1.1,1.9-2.5,3.6-4.3,4.9c-1.7,1.3-3.7,2.2-6,2.9
				c-2.2,0.7-4.3,1-6.4,1.1L379.9,385.1z M383.5,358.8l0.2,22.3c1.7-0.1,3.5-0.4,5.2-1c1.8-0.5,3.4-1.3,4.8-2.4
				c1.4-1,2.4-2.2,3.3-3.7c0.8-1.4,1.1-3,1-5c-0.1-1.7-0.4-3.3-0.9-4.7c-0.5-1.3-1.2-2.5-2.2-3.4c-0.9-0.9-2-1.6-3.3-2.1
				c-1.3-0.5-2.9-0.7-4.7-0.6c-0.8,0-1.6,0.1-2.4,0.3C384.1,358.7,383.8,358.7,383.5,358.8z"/>
		</g>
		<g>
			<path class="st191" d="M520.8,378.5c-0.3-6.7-1.7-12.7-4.1-18.1c-2.4-5.3-5.7-9.8-9.8-13.5c-4.1-3.6-8.9-6.4-14.5-8.1
				c-5.6-1.8-11.7-2.5-18.4-2.2c-4.1,0.2-8,1-11.7,2.3c-3.7,1.3-7,3.1-10.1,5.4c-3.1,2.2-5.9,4.8-8.3,7.8c-2.4,3-4.5,6.2-6.1,9.7
				c-1.6,3.5-2.8,7.2-3.6,11.1c-0.8,3.9-1.1,7.8-0.8,11.8c0.2,4.1,0.9,8,2.2,11.7c0.5,1.5,1.1,3,1.7,4.4c10.5-1.9,20.9-3.9,31.4-5.9
				c-0.5-0.5-1-1-1.5-1.6c-1.2-1.5-2.1-3.2-2.8-5.1c-0.7-1.9-1-3.8-1.1-5.8c-0.1-2,0.1-4,0.7-5.8c0.6-1.8,1.4-3.5,2.6-4.9
				c1.1-1.4,2.6-2.6,4.2-3.4c1.7-0.9,3.6-1.4,5.7-1.5c2.1-0.1,4,0.2,5.7,1.1c1.7,0.8,3.1,1.9,4.3,3.3c1.2,1.4,2.1,3,2.8,4.8
				c0.7,1.8,1.1,3.7,1.2,5.7c0.1,2-0.1,4-0.7,5.9c-0.4,1.3-0.9,2.5-1.5,3.6c8-1.5,16-2.9,24.2-4.3c2.8-0.5,5.6-0.9,8.4-1.3
				C520.8,383.4,520.9,381,520.8,378.5z"/>
			<path class="st190" d="M436,403l-0.6-1.4c-0.7-1.6-1.3-3.1-1.8-4.6c-1.3-3.9-2-8-2.3-12.2c-0.2-4.1,0.1-8.3,0.9-12.3
				c0.8-4,2.1-7.9,3.8-11.5c1.7-3.6,3.8-7,6.4-10.1c2.5-3.1,5.4-5.8,8.6-8.2c3.2-2.3,6.8-4.2,10.6-5.6c3.8-1.4,8-2.2,12.3-2.4
				c6.9-0.4,13.3,0.4,19.1,2.3c5.8,1.9,10.9,4.7,15.2,8.5c4.3,3.8,7.7,8.5,10.2,14.1c2.5,5.5,4,11.8,4.3,18.8v0
				c0.1,2.5,0.1,5-0.2,7.6l-0.1,1.5l-1.5,0.2c-3.2,0.4-5.8,0.9-8.4,1.3c-7.1,1.2-14.8,2.6-24.1,4.3l-4,0.7l2-3.5
				c0.6-1,1-2.1,1.3-3.2c0.5-1.7,0.7-3.5,0.6-5.3c-0.1-1.8-0.4-3.5-1-5.2c-0.6-1.6-1.4-3.1-2.4-4.3c-1-1.2-2.2-2.1-3.7-2.8
				c-1.4-0.7-3-1-4.8-0.9c-1.9,0.1-3.5,0.5-5,1.3c-1.4,0.7-2.6,1.7-3.6,2.9c-1,1.2-1.7,2.7-2.2,4.3c-0.5,1.6-0.7,3.4-0.6,5.2
				c0.1,1.8,0.4,3.5,1,5.2c0.6,1.7,1.4,3.2,2.5,4.6c0.4,0.5,0.8,0.9,1.3,1.4l2.8,2.5l-6.3,1.2c-9.5,1.8-19.2,3.6-28.8,5.4L436,403z
				 M477.1,338.4c-1,0-2,0-3,0.1c-3.9,0.2-7.7,0.9-11.2,2.2c-3.5,1.3-6.7,3-9.7,5.1c-2.9,2.1-5.6,4.6-7.9,7.5
				c-2.3,2.8-4.3,6-5.9,9.3c-1.6,3.3-2.7,6.9-3.5,10.6c-0.7,3.7-1,7.6-0.8,11.4c0.2,3.9,0.9,7.7,2.1,11.2c0.3,0.9,0.7,1.9,1.1,2.9
				c8.9-1.6,17.9-3.3,26.7-5c-1-1.5-1.9-3.1-2.5-4.9c-0.7-2.1-1.1-4.2-1.2-6.3c-0.1-2.2,0.1-4.4,0.7-6.4c0.6-2.1,1.6-3.9,2.9-5.6
				c1.3-1.6,2.9-2.9,4.8-3.9c1.9-1,4.1-1.6,6.5-1.7c2.4-0.1,4.6,0.3,6.6,1.2c1.9,0.9,3.6,2.2,4.9,3.8c1.3,1.6,2.4,3.4,3.1,5.4
				c0.7,2,1.2,4.1,1.3,6.3c0.1,2.2-0.1,4.4-0.7,6.5c-0.1,0.2-0.1,0.4-0.2,0.6c7.8-1.4,14.5-2.6,20.7-3.7c2.2-0.4,4.4-0.7,7-1.1
				c0.1-1.9,0.1-3.7,0-5.6c-0.3-6.5-1.7-12.3-4-17.4c-2.3-5.1-5.4-9.4-9.3-12.9c-3.9-3.5-8.5-6.1-13.9-7.8
				C487.3,339.2,482.3,338.4,477.1,338.4z"/>
		</g>
		<g>
			<path class="st190" d="M488,391.4c-0.3,0.5-0.6,1-1,1.5c-1.1,1.5-2.5,2.7-4.2,3.7c-1.7,0.9-3.6,1.5-5.8,1.6
				c-2.2,0.1-4.1-0.3-5.8-1.2c-1-0.5-1.9-1.2-2.8-2c-10.5,2-21,4-31.4,5.9c0.9,2.1,2,4.1,3.2,6c2,3.2,4.4,6.1,7.2,8.6
				c2.8,2.6,5.9,4.7,9.2,6.4c3.4,1.7,6.9,3,10.8,3.9c3.8,0.9,7.8,1.2,11.9,1c4.3-0.2,8.3-1,12.1-2.3c3.8-1.3,7.2-3.1,10.4-5.3
				c3.1-2.2,5.9-4.8,8.4-7.7c2.5-3,4.5-6.2,6.1-9.7c1.6-3.5,2.8-7.2,3.6-11.2c0.3-1.6,0.5-3.2,0.7-4.9c-2.8,0.4-5.6,0.8-8.4,1.3
				C504.1,388.5,496,389.9,488,391.4z"/>
			<path class="st190" d="M477,428.8c-3.4,0-6.8-0.4-9.9-1.1c-3.9-0.9-7.7-2.3-11.2-4.1c-3.5-1.8-6.7-4.1-9.6-6.7
				c-2.9-2.7-5.4-5.7-7.5-9c-1.2-1.9-2.3-4-3.3-6.2l-1-2.2l2.4-0.4c9.6-1.7,19.4-3.6,28.8-5.4l3.5-0.7l0.7,0.6
				c0.8,0.7,1.5,1.3,2.4,1.7c1.4,0.7,3,1,4.8,0.9c1.9-0.1,3.5-0.5,4.9-1.3c1.4-0.8,2.7-1.9,3.6-3.2c0.3-0.4,0.6-0.8,0.9-1.3l0.4-0.8
				l0.9-0.2c9.4-1.7,17.1-3.1,24.2-4.3c2.6-0.4,5.2-0.8,8.5-1.3l2.3-0.3l-0.2,2.4c-0.2,1.9-0.4,3.5-0.7,5.1c-0.8,4.1-2.1,8-3.8,11.6
				c-1.7,3.6-3.9,7-6.4,10.1c-2.6,3.1-5.5,5.8-8.8,8.1c-3.3,2.3-6.9,4.1-10.8,5.5c-3.9,1.4-8.2,2.2-12.6,2.4
				C478.7,428.8,477.8,428.8,477,428.8z M439.8,402.3c0.6,1.3,1.3,2.4,2,3.6c1.9,3,4.3,5.8,6.9,8.3c2.6,2.4,5.6,4.5,8.8,6.2
				c3.2,1.7,6.7,2.9,10.3,3.7c3.6,0.8,7.5,1.1,11.4,0.9c4.1-0.2,8-1,11.5-2.2c3.6-1.3,6.9-3,9.9-5c3-2.1,5.7-4.6,8-7.4
				c2.3-2.8,4.3-6,5.9-9.3c1.6-3.3,2.7-6.9,3.5-10.7c0.1-0.7,0.3-1.5,0.4-2.3c-2.2,0.3-4.1,0.6-6,0.9c-6.9,1.2-14.3,2.5-23.3,4.2
				c-0.2,0.3-0.4,0.7-0.6,1c-1.3,1.7-2.9,3.1-4.8,4.2c-1.9,1.1-4.1,1.7-6.6,1.8c-2.5,0.1-4.8-0.3-6.7-1.4c-0.9-0.4-1.7-1-2.5-1.6
				l-1.7,0.3C457.6,399,448.7,400.7,439.8,402.3z"/>
		</g>
		<g>
			<path class="st190" d="M527.4,425.9l31.1-1.6l0.3-41.6c-10.7,0.3-21.5,1-32.5,2.3L527.4,425.9z"/>
			<path class="st190" d="M525.5,427.9l-1.2-44.5l1.7-0.2c10.4-1.3,21.4-2.1,32.6-2.4l1.9-0.1l-0.4,45.3L525.5,427.9z M528.2,386.7
				l1,37.2l27.4-1.4l0.3-37.9C546.9,385,537.5,385.6,528.2,386.7z"/>
		</g>
		<g>
			<path class="st191" d="M616.8,384.9l0.1-61.7l-32.5,2.8l1.3,47l-26.4-48.5l-34.4,3.4l1.5,57.1c10.9-1.3,21.7-2.1,32.5-2.3
				l0.1-9.6l4.2,9.5C581.1,382.3,599,383.3,616.8,384.9z"/>
			<path class="st190" d="M524.5,387.2l-1.6-60.9l37.4-3.7l23.3,42.7l-1.1-40.9l36.3-3.1l-0.1,65.8l-2-0.2
				c-20.2-1.8-37.2-2.5-53.5-2.3l-1.2,0l-1.2-2.7l0,2.8l-1.8,0c-11.2,0.3-21.8,1.1-32.3,2.3L524.5,387.2z M526.8,329.6l1.4,53.3
				c9.3-1.1,18.9-1.8,28.8-2.1l0.1-16.5l7.3,16.3c15.5-0.2,31.6,0.5,50.6,2.1l0.1-57.6l-28.7,2.4l1.5,53l-29.6-54.2L526.8,329.6z"/>
		</g>
		<g>
			<path class="st190" d="M563.1,382.6l17.6,39.6l36-5.2l0.1-32.2C599,383.3,581.1,382.3,563.1,382.6z"/>
			<path class="st190" d="M579.6,424.3l-19.4-43.5l2.8,0c16.4-0.2,33.5,0.5,53.9,2.3l1.7,0.2l-0.1,35.5L579.6,424.3z M566,384.5
				l15.9,35.7l33-4.7l0.1-28.8C596.6,385,580.9,384.4,566,384.5z"/>
		</g>
	</g>
	<g>
		<g>
			<path class="st0" d="M178.3,341.9c0.4,2.7,0.2,5.1-0.6,7.2s-2.1,3.9-3.8,5.4c-1.7,1.5-3.7,2.8-6.1,3.7c-2.3,1-4.8,1.7-7.4,2.2
				c-1.6,0.2-3.2,0.4-4.7,0.6c-0.6,0.1-1.3,0.2-2,0.3c-0.7,0.1-1.3,0.2-1.9,0.2c-0.6,0.1-1.2,0.2-1.8,0.2c-0.6,0.1-1,0.2-1.4,0.2
				c-1.6,0.3-3.3,0.6-5,0.9c-1.7,0.3-3.4,0.6-5.1,1c0.9-1.7,1.5-3.7,1.8-6.2c0.3-2.4,0.5-5,0.4-7.8c0-2.8-0.2-5.6-0.5-8.4
				c-0.3-2.9-0.6-5.5-1-8c-0.2-1.1-0.4-2.3-0.7-3.8c-0.3-1.5-0.6-3.1-1-4.8c-0.4-1.7-0.8-3.4-1.2-5.1c-0.4-1.7-0.9-3.3-1.5-4.8
				c-0.5-1.5-1.1-2.7-1.8-3.8c-0.6-1.1-1.3-1.8-2-2.2c1.8,0,3.6-0.1,5.2-0.3c1.7-0.2,3.1-0.4,4.3-0.5c1-0.2,1.9-0.3,2.7-0.5
				c0.8-0.2,1.6-0.3,2.4-0.5c0.8-0.2,1.6-0.3,2.4-0.5c0.8-0.2,1.8-0.3,2.8-0.5c1.6-0.2,3.3-0.4,4.9-0.5c1.7-0.1,3.3-0.1,4.8,0.1
				c1.5,0.2,3,0.5,4.4,0.9c1.4,0.5,2.7,1.2,3.8,2.1c1.1,0.9,2.1,2.1,2.9,3.5c0.8,1.4,1.3,3.2,1.7,5.2c0.2,1.1,0.2,2.2,0.1,3.4
				c-0.1,1.1-0.4,2.3-0.8,3.4c-0.5,1.2-1.1,2.3-2,3.4c-0.9,1.1-2,2.2-3.3,3.3c3.3,0.8,5.9,2.1,7.6,3.9
				C176.8,336.9,177.9,339.1,178.3,341.9z M153.8,328.8c0.4-0.4,0.9-1,1.5-1.8c0.6-0.7,1.1-1.5,1.5-2.4c0.5-0.8,0.8-1.7,1.1-2.6
				c0.3-0.9,0.4-1.7,0.3-2.4c-0.1-0.8-0.5-1.4-1-1.8c-0.5-0.4-1.1-0.6-1.6-0.5c-0.8,0.1-1.4,0.6-1.7,1.4c-0.4,0.8-0.6,1.7-0.7,2.7
				c-0.1,1-0.1,2-0.1,3c0.1,1,0.2,1.8,0.2,2.4c0,0.3,0.1,0.6,0.1,0.9C153.6,328.1,153.7,328.4,153.8,328.8z M161.7,346.3
				c-0.1-0.9-0.4-1.7-0.8-2.6c-0.4-0.9-0.9-1.7-1.5-2.5c-0.6-0.8-1.2-1.6-1.9-2.3c-0.7-0.7-1.4-1.4-2.1-2c-0.2,1.2-0.3,2.3-0.2,3.4
				c0.1,1.1,0.2,2.1,0.3,2.9c0.2,1.3,0.5,2.3,0.8,3.1c0.3,0.8,0.6,1.5,1,1.9c0.4,0.5,0.8,0.8,1.3,0.9c0.5,0.2,0.9,0.2,1.4,0.1
				c0.6-0.1,1.1-0.4,1.5-0.9C161.7,347.8,161.8,347.1,161.7,346.3z"/>
			<path class="st0" d="M201.9,310.9c0,1.4,0.1,2.7,0.2,4c0.1,1.2,0.3,2.5,0.5,3.7c0.2,1.2,0.4,2.5,0.7,3.6c0.2,1.2,0.6,2.3,1,3.5
				c-0.4-0.1-0.9-0.1-1.3,0c-0.4,0-0.9,0.1-1.4,0.2c-1.5,0.2-2.9,0.7-4.4,1.3c0.4,2.3,1,4.1,1.6,5.6c0.6,1.5,1.3,2.7,2.1,3.5
				c0.8,0.9,1.6,1.4,2.5,1.7c0.9,0.3,1.9,0.4,2.9,0.2c1.5-0.2,3-1,4.3-2.4c1.3-1.4,2.4-3.2,3.2-5.5l5.2,20.2c-0.9-0.1-1.9-0.1-3.1,0
				c-1.2,0-2.4,0.1-3.7,0.2c-1.3,0.1-2.5,0.3-3.8,0.4c-1.2,0.2-2.4,0.3-3.4,0.5c-1,0.1-1.8,0.3-2.4,0.4c-0.6,0.1-1,0.2-1,0.2
				c-1.5,0.3-3.2,0.6-4.9,1c-1.5,0.4-3.2,0.8-5.1,1.3c-1.9,0.5-3.9,1.2-6,1.9c0.3-2.9,0.3-6.3,0.2-10.1c-0.1-3.8-0.4-7.9-0.9-12
				c-1,0.7-2.1,1.5-3.1,2.4c-1,0.8-2,1.7-2.9,2.6c0-0.4,0.1-0.8,0-1.4c0-0.5,0-1.1-0.1-1.7c-0.1-0.6-0.1-1.1-0.2-1.6
				c-0.1-0.5-0.1-0.9-0.2-1.3c-0.2-1.4-0.5-2.9-0.8-4.2c-0.3-1.4-0.7-2.7-1-4c0.2,0,0.4,0,0.6,0c0.2,0,0.5-0.1,0.7-0.1
				c1.6-0.3,3.4-0.8,5.3-1.5c-0.4-2.1-0.8-4.2-1.2-6.2c-0.4-2-0.9-3.9-1.3-5.8c-0.5-1.8-1-3.6-1.5-5.2c-0.5-1.6-1-3.1-1.6-4.4
				c2.6,0.1,4.9,0,7.1-0.2s4-0.4,5.5-0.6c1-0.2,1.9-0.3,2.6-0.5c0.8-0.2,1.4-0.3,2-0.4c0.6-0.2,1.2-0.3,1.7-0.5
				c-0.4,2.4-0.6,5.1-0.8,8c-0.1,2.9-0.1,5.8,0.1,8.7c1.1-0.9,2.2-1.8,3.3-2.7C200.3,312.9,201.2,311.9,201.9,310.9z"/>
			<path class="st0" d="M264.1,343.4c-1.6,0-3,0.1-4.5,0.3s-2.9,0.3-4.3,0.6c-3.9,0.6-7.8,1.6-11.8,3c0.1-0.6,0.1-1.2,0.2-1.6
				c0.1-0.5,0.2-1,0.3-1.6c0.1-0.6,0.1-1.2,0.1-2c0-0.7-0.1-1.7-0.3-2.9c-0.2-1.2-0.4-2.3-0.8-3.3c-0.3-1-0.7-1.9-1.2-2.7
				c-0.5-0.8-1-1.4-1.6-1.8c-0.6-0.4-1.2-0.6-1.9-0.5c-0.7,0.1-1.3,0.4-1.8,1c-0.4,0.5-0.7,1.2-0.9,2c-0.2,0.8-0.3,1.7-0.2,2.7
				c0,1,0.1,2.1,0.3,3.2c0.2,1.1,0.4,2,0.7,2.8c0.3,0.8,0.5,1.4,0.8,2c0.3,0.6,0.5,1.1,0.8,1.5c0.2,0.4,0.4,0.9,0.6,1.3
				c-1.7,0.1-3.4,0.2-5,0.3c-1.6,0.2-3.3,0.4-4.9,0.6c-1.6,0.3-3.2,0.6-4.8,0.9c-1.6,0.4-3.3,0.8-5,1.2c0.8-4.6,1.5-9.2,1.9-13.7
				c0.5-4.5,0.7-9,0.9-13.5c0.1-4.5,0.1-9.1-0.1-13.6c-0.2-4.6-0.6-9.2-1.1-14c1.9,0,3.9-0.2,6.1-0.4c2.2-0.2,4.4-0.5,6.7-0.9
				c1.9-0.3,3.8-0.7,5.6-1c1.8-0.4,3.5-0.9,5-1.4c0.9,4.7,2.1,9.2,3.5,13.6c1.4,4.4,3,8.8,4.8,13c1.8,4.3,3.7,8.5,5.7,12.6
				C259.8,335.3,261.9,339.4,264.1,343.4z M239,318.2c-0.1-0.5-0.4-1.1-0.8-2c-0.3-0.7-0.8-1.7-1.5-2.9c-0.6-1.2-1.6-2.8-2.7-4.7
				c0,1.3,0,2.5-0.1,3.5c-0.1,1-0.2,2-0.3,2.8c-0.1,0.8-0.2,1.6-0.2,2.3c-0.1,0.7,0,1.3,0.1,1.9c0.2,1.2,0.6,2.1,1.3,2.7
				c0.7,0.6,1.4,0.8,2.1,0.7c0.8-0.1,1.3-0.6,1.7-1.4C239,320.3,239.2,319.3,239,318.2z"/>
			<path class="st0" d="M293.9,283.3c-0.2,1.5-0.5,3.3-1.1,5.4c-0.5,2.1-1.2,4.4-1.9,6.9c-0.7,2.5-1.5,5.2-2.4,8
				c-0.9,2.8-1.7,5.6-2.5,8.5c-0.8,2.9-1.5,5.7-2.2,8.5c-0.6,2.8-1.1,5.5-1.5,8c1.5-0.6,3-1.2,4.4-1.8c1.5-0.7,2.9-1.4,4.2-2.2
				c1.4-0.8,2.7-1.8,3.9-2.8c1.3-1.1,2.5-2.3,3.6-3.7c0.1,1.3,0.1,2.6,0.3,3.9c0.1,1.3,0.3,2.5,0.5,3.8c0.3,2,0.7,4,1.3,6
				c0.5,2,1.2,3.9,1.9,5.9c-3.1,0-6.4,0.2-9.7,0.5c-3.3,0.3-6.7,0.7-10,1.2c-3.4,0.5-6.8,1.2-10.1,1.9c-3.3,0.8-6.6,1.6-9.7,2.5
				c1.9-8,4-15.7,6.3-23.1c2.3-7.4,4.9-14.5,7.6-21.3c-3,0.6-6.1,1.7-9,3.2c-3,1.5-5.9,3.3-8.6,5.4c0-1.4-0.1-2.8-0.2-4.1
				c-0.1-1.3-0.2-2.6-0.4-3.9c-0.3-1.8-0.7-3.5-1.1-5.2c-0.5-1.7-1.1-3.3-1.9-5c2.7-0.1,5.5-0.3,8.3-0.6c2.8-0.3,5.7-0.7,8.6-1.1
				c3.7-0.6,7.3-1.3,10.9-2.1C287.1,285.2,290.6,284.3,293.9,283.3z"/>
			<path class="st0" d="M339.8,331.6c-1.3,0-2.6,0-4,0c-1.4,0.1-2.8,0.2-4.3,0.4c-1.5,0.2-3.1,0.4-4.8,0.6c-1.7,0.3-3.5,0.5-5.5,0.8
				c-0.9,0.1-2,0.3-3.3,0.6c-1.3,0.2-2.7,0.5-4.1,0.8c-1.5,0.3-3,0.7-4.5,1.1c-1.5,0.4-3,0.9-4.5,1.4c0.4-1.2,0.6-2.7,0.7-4.4
				c0.1-1.7,0.2-3.6,0.1-5.5c0-1.9-0.1-3.9-0.3-5.9s-0.3-3.8-0.5-5.5c-0.2-1.7-0.4-3.2-0.6-4.4c-0.2-1.2-0.3-2.1-0.4-2.6
				c0-0.1-0.1-0.5-0.2-1.1c-0.1-0.7-0.3-1.5-0.5-2.6s-0.4-2.3-0.7-3.6c-0.3-1.4-0.6-2.8-0.9-4.2c-0.3-1.5-0.7-2.9-1-4.4
				c-0.4-1.5-0.8-2.9-1.1-4.2c-0.4-1.3-0.8-2.5-1.2-3.5c-0.4-1-0.8-1.8-1.2-2.4c2.5,0,4.9-0.2,7.2-0.4c2.4-0.2,4.6-0.5,6.8-0.8
				c2.7-0.4,5.2-0.9,7.5-1.4c2.3-0.5,4.3-1,6-1.5c2-0.5,3.8-1.1,5.4-1.6l2.7,17.2c-1.6-1.1-3.2-1.9-4.6-2.4c-1.4-0.5-2.6-0.9-3.7-1
				c-1.2-0.2-2.4-0.3-3.4-0.1c-1.2,0.2-2.2,0.5-2.9,0.9c-0.7,0.4-1.3,0.9-1.6,1.5c-0.4,0.5-0.6,1.1-0.6,1.8c-0.1,0.6,0,1.2,0.1,1.9
				c0.1,0.6,0.3,1.3,0.6,1.9c0.3,0.6,0.7,1.1,1.1,1.6c0.5,0.5,1,0.8,1.7,1c0.7,0.2,1.4,0.3,2.3,0.1c0.7-0.1,1.3-0.4,1.9-0.8
				c0.5-0.4,1-0.9,1.3-1.4c0.4-0.5,0.8-1.2,1.1-1.8l2.4,15c-0.5-0.9-1.1-1.5-1.7-2c-0.6-0.5-1.2-0.8-1.7-1c-0.5-0.2-1-0.3-1.4-0.3
				c-0.4,0-0.7,0-0.8,0c-1.6,0.3-2.7,0.9-3.3,2c-0.6,1.1-0.8,2.4-0.6,4c0.2,1.1,0.5,2.1,0.8,2.8c0.4,0.7,0.8,1.3,1.3,1.7
				c0.5,0.4,1.1,0.7,1.7,0.8c0.6,0.1,1.2,0.1,1.9,0c1-0.2,2-0.5,3.1-1.2c1.1-0.6,2-1.4,3-2.3c0.9-0.9,1.7-1.9,2.5-3
				c0.7-1.1,1.3-2.2,1.6-3.2L339.8,331.6z"/>
			<path class="st0" d="M363.7,327c-0.5,0-1,0.1-1.7,0.1c-0.5,0-1.2,0.1-2,0.2c-0.8,0.1-1.6,0.2-2.6,0.4c-1.9,0.3-4.1,0.7-6.7,1.3
				c-2.5,0.6-5.3,1.4-8.3,2.3c0.4-1.2,0.6-2.7,0.7-4.4c0.1-1.8,0.2-3.6,0.1-5.6c0-2-0.2-3.9-0.3-6c-0.2-2-0.3-3.9-0.5-5.6
				c-0.2-1.7-0.4-3.2-0.6-4.5c-0.2-1.3-0.3-2.1-0.4-2.6c0-0.1-0.1-0.5-0.2-1.1c-0.1-0.7-0.3-1.5-0.5-2.6c-0.2-1-0.4-2.3-0.7-3.6
				c-0.3-1.4-0.6-2.8-0.9-4.2s-0.7-2.9-1-4.4c-0.4-1.5-0.8-2.9-1.1-4.1c-0.4-1.3-0.8-2.5-1.2-3.5c-0.4-1-0.8-1.8-1.2-2.4
				c2.5,0.1,4.8,0,6.9-0.2c2.1-0.2,3.9-0.4,5.5-0.6c1.1-0.2,2-0.3,2.9-0.5c0.8-0.2,1.5-0.3,2.1-0.5c0.6-0.2,1.2-0.3,1.7-0.5
				c1.9,5,3.8,9.7,5.9,13.9c2,4.2,4.2,8.1,6.5,11.6l-0.2-1.5c-0.7-4-1.4-7.7-2.2-11.1c-0.3-1.5-0.7-2.9-1-4.4
				c-0.4-1.5-0.7-2.9-1.1-4.2c-0.4-1.3-0.8-2.5-1.2-3.5c-0.4-1-0.8-1.8-1.2-2.4c2.5,0.1,4.8,0,6.9-0.2c2.1-0.2,3.9-0.4,5.5-0.6
				c1.1-0.2,2-0.3,2.9-0.5c0.8-0.2,1.5-0.3,2.1-0.5c0.6-0.2,1.2-0.3,1.7-0.5c-0.1,1.4-0.1,3,0,4.7c0,1.7,0.1,3.6,0.3,5.5
				c0.1,1.9,0.3,4,0.6,6.1c0.2,2.1,0.5,4.3,0.9,6.5c0.4,2.5,0.9,5.1,1.4,7.7c0.5,2.6,1.1,5.2,1.8,7.7c0.7,2.5,1.4,5,2.3,7.4
				c0.8,2.4,1.7,4.7,2.7,6.9c-0.4,0-1,0.1-1.6,0.1c-0.5,0-1.2,0.1-1.9,0.2c-0.7,0.1-1.6,0.2-2.5,0.4c-1.8,0.3-3.8,0.7-6.1,1.2
				c-2.3,0.5-4.7,1.3-7.3,2.2c-0.4-2.5-1-5-1.8-7.3c-0.8-2.3-1.7-4.6-2.8-6.9c-1.1-2.2-2.3-4.4-3.7-6.5c-1.4-2.1-2.9-4.1-4.5-6.1
				c0.4,2.3,0.8,4.6,1.4,6.9c0.5,2.3,1.1,4.6,1.8,6.9c0.6,2.3,1.3,4.5,2.1,6.6C362.1,323,362.9,325.1,363.7,327z"/>
		</g>
		<path class="st218" d="M171.8,335.9c0.4,2.7,0.2,5.1-0.6,7.2c-0.8,2.1-2.1,3.9-3.8,5.4c-1.7,1.5-3.7,2.8-6.1,3.7
			c-2.3,1-4.8,1.7-7.4,2.2c-1.6,0.2-3.2,0.4-4.7,0.6c-0.6,0.1-1.3,0.2-2,0.3c-0.7,0.1-1.3,0.2-1.9,0.2c-0.6,0.1-1.2,0.2-1.8,0.2
			c-0.6,0.1-1,0.2-1.4,0.2c-1.6,0.3-3.3,0.6-5,0.9c-1.7,0.3-3.4,0.6-5.1,1c0.9-1.7,1.5-3.7,1.8-6.2c0.3-2.4,0.5-5,0.4-7.8
			s-0.2-5.6-0.5-8.4c-0.3-2.9-0.6-5.5-1-8c-0.2-1.1-0.4-2.3-0.7-3.8c-0.3-1.5-0.6-3.1-1-4.8c-0.4-1.7-0.8-3.4-1.2-5.1
			c-0.4-1.7-0.9-3.3-1.5-4.8c-0.5-1.5-1.1-2.7-1.8-3.8c-0.6-1.1-1.3-1.8-2-2.2c1.8,0,3.6-0.1,5.2-0.3c1.7-0.2,3.1-0.4,4.3-0.5
			c1-0.2,1.9-0.3,2.7-0.5c0.8-0.2,1.6-0.3,2.4-0.5c0.8-0.2,1.6-0.3,2.4-0.5c0.8-0.2,1.8-0.3,2.8-0.5c1.6-0.2,3.3-0.4,4.9-0.5
			c1.7-0.1,3.3-0.1,4.8,0.1c1.5,0.2,3,0.5,4.4,0.9c1.4,0.5,2.7,1.2,3.8,2.1c1.1,0.9,2.1,2.1,2.9,3.5c0.8,1.4,1.3,3.2,1.7,5.2
			c0.2,1.1,0.2,2.2,0.1,3.4c-0.1,1.1-0.4,2.3-0.8,3.4c-0.5,1.2-1.1,2.3-2,3.4c-0.9,1.1-2,2.2-3.3,3.3c3.3,0.8,5.9,2.1,7.6,3.9
			C170.3,330.9,171.3,333.2,171.8,335.9z M147.2,322.8c0.4-0.4,0.9-1,1.5-1.8c0.6-0.7,1.1-1.5,1.5-2.4c0.5-0.8,0.8-1.7,1.1-2.6
			c0.3-0.9,0.4-1.7,0.3-2.4c-0.1-0.8-0.5-1.4-1-1.8c-0.5-0.4-1.1-0.6-1.6-0.5c-0.8,0.1-1.4,0.6-1.7,1.4c-0.4,0.8-0.6,1.7-0.7,2.7
			c-0.1,1-0.1,2-0.1,3c0.1,1,0.2,1.8,0.2,2.4c0,0.3,0.1,0.6,0.1,0.9C147.1,322.1,147.1,322.4,147.2,322.8z M155.2,340.3
			c-0.1-0.9-0.4-1.7-0.8-2.6c-0.4-0.9-0.9-1.7-1.5-2.5c-0.6-0.8-1.2-1.6-1.9-2.3c-0.7-0.7-1.4-1.4-2.1-2c-0.2,1.2-0.3,2.3-0.2,3.4
			c0.1,1.1,0.2,2.1,0.3,2.9c0.2,1.3,0.5,2.3,0.8,3.1c0.3,0.8,0.6,1.5,1,1.9c0.4,0.5,0.8,0.8,1.3,0.9c0.5,0.2,0.9,0.2,1.4,0.1
			c0.6-0.1,1.1-0.4,1.5-0.9C155.2,341.8,155.3,341.1,155.2,340.3z"/>
		<path class="st218" d="M195.4,304.9c0,1.4,0.1,2.7,0.2,4c0.1,1.2,0.3,2.5,0.5,3.7c0.2,1.2,0.4,2.5,0.7,3.6c0.2,1.2,0.6,2.3,1,3.5
			c-0.4-0.1-0.9-0.1-1.3,0c-0.4,0-0.9,0.1-1.4,0.2c-1.5,0.2-2.9,0.7-4.4,1.3c0.4,2.3,1,4.1,1.6,5.6s1.3,2.7,2.1,3.5
			c0.8,0.9,1.6,1.4,2.5,1.7c0.9,0.3,1.9,0.4,2.9,0.2c1.5-0.2,3-1,4.3-2.4c1.3-1.4,2.4-3.2,3.2-5.5l5.2,20.2c-0.9-0.1-1.9-0.1-3.1,0
			c-1.2,0-2.4,0.1-3.7,0.2c-1.3,0.1-2.5,0.3-3.8,0.4c-1.2,0.2-2.4,0.3-3.4,0.5c-1,0.1-1.8,0.3-2.4,0.4c-0.6,0.1-1,0.2-1,0.2
			c-1.5,0.3-3.2,0.6-4.9,1c-1.5,0.4-3.2,0.8-5.1,1.3c-1.9,0.5-3.9,1.2-6,1.9c0.3-2.9,0.3-6.3,0.2-10.1c-0.1-3.8-0.4-7.9-0.9-12
			c-1,0.7-2.1,1.5-3.1,2.4c-1,0.8-2,1.7-2.9,2.6c0-0.4,0.1-0.8,0-1.4c0-0.5,0-1.1-0.1-1.7c-0.1-0.6-0.1-1.1-0.2-1.6
			c-0.1-0.5-0.1-0.9-0.2-1.3c-0.2-1.4-0.5-2.8-0.8-4.2c-0.3-1.4-0.7-2.7-1-4c0.2,0,0.4,0,0.6,0c0.2,0,0.5-0.1,0.7-0.1
			c1.6-0.3,3.4-0.8,5.3-1.5c-0.4-2.1-0.8-4.2-1.2-6.2c-0.4-2-0.9-3.9-1.3-5.8c-0.5-1.8-1-3.6-1.5-5.2s-1-3.1-1.6-4.4
			c2.6,0.1,4.9,0,7.1-0.2c2.1-0.2,4-0.4,5.5-0.6c1-0.2,1.9-0.3,2.6-0.5c0.8-0.2,1.4-0.3,2-0.4c0.6-0.2,1.2-0.3,1.7-0.5
			c-0.4,2.4-0.6,5.1-0.8,8c-0.1,2.9-0.1,5.8,0.1,8.7c1.1-0.9,2.2-1.8,3.3-2.7C193.7,306.9,194.6,305.9,195.4,304.9z"/>
		<path class="st218" d="M257.6,337.5c-1.6,0-3,0.1-4.5,0.3c-1.4,0.1-2.9,0.3-4.3,0.6c-3.9,0.6-7.8,1.6-11.8,3
			c0.1-0.6,0.1-1.2,0.2-1.6c0.1-0.5,0.2-1,0.3-1.6c0.1-0.6,0.1-1.2,0.1-2c0-0.7-0.1-1.7-0.3-2.9c-0.2-1.2-0.4-2.3-0.8-3.3
			c-0.3-1-0.7-1.9-1.2-2.7c-0.5-0.8-1-1.4-1.6-1.8c-0.6-0.4-1.2-0.6-1.9-0.5c-0.7,0.1-1.3,0.4-1.8,1c-0.4,0.5-0.7,1.2-0.9,2
			c-0.2,0.8-0.3,1.7-0.2,2.7c0,1,0.1,2.1,0.3,3.2c0.2,1.1,0.4,2,0.7,2.8c0.3,0.8,0.5,1.4,0.8,2c0.3,0.6,0.5,1.1,0.8,1.5
			c0.2,0.4,0.4,0.9,0.6,1.3c-1.7,0.1-3.4,0.2-5,0.3c-1.6,0.2-3.3,0.4-4.9,0.6c-1.6,0.3-3.2,0.6-4.8,0.9c-1.6,0.4-3.3,0.8-5,1.2
			c0.8-4.6,1.5-9.2,1.9-13.7c0.5-4.5,0.7-9,0.9-13.5c0.1-4.5,0.1-9-0.1-13.6c-0.2-4.6-0.6-9.2-1.1-14c1.9,0,3.9-0.2,6.1-0.4
			c2.2-0.2,4.4-0.5,6.7-0.9c1.9-0.3,3.8-0.7,5.6-1c1.8-0.4,3.5-0.9,5-1.4c0.9,4.7,2.1,9.2,3.5,13.6s3,8.8,4.8,13
			c1.8,4.3,3.7,8.5,5.7,12.6C253.3,329.3,255.4,333.4,257.6,337.5z M232.5,312.2c-0.1-0.5-0.4-1.1-0.8-2c-0.3-0.7-0.8-1.7-1.5-2.9
			c-0.6-1.2-1.6-2.8-2.7-4.7c0,1.3,0,2.5-0.1,3.5c-0.1,1-0.2,2-0.3,2.8c-0.1,0.8-0.2,1.6-0.2,2.3c-0.1,0.7,0,1.3,0.1,1.9
			c0.2,1.2,0.6,2.1,1.3,2.7c0.7,0.6,1.4,0.8,2.1,0.7c0.8-0.1,1.3-0.6,1.7-1.4C232.5,314.3,232.6,313.3,232.5,312.2z"/>
		<path class="st218" d="M287.4,277.3c-0.2,1.5-0.5,3.3-1.1,5.4c-0.5,2.1-1.2,4.4-1.9,6.9c-0.7,2.5-1.5,5.2-2.4,8
			c-0.9,2.8-1.7,5.6-2.5,8.5c-0.8,2.9-1.5,5.7-2.2,8.5c-0.6,2.8-1.1,5.5-1.5,8c1.5-0.6,3-1.2,4.4-1.8c1.5-0.7,2.9-1.4,4.2-2.2
			c1.4-0.8,2.7-1.8,3.9-2.8c1.3-1.1,2.5-2.3,3.6-3.7c0.1,1.3,0.1,2.6,0.3,3.9c0.1,1.3,0.3,2.5,0.5,3.8c0.3,2,0.7,4,1.3,6
			c0.5,2,1.2,3.9,1.9,5.9c-3.1,0-6.4,0.2-9.7,0.5c-3.3,0.3-6.7,0.7-10,1.2c-3.4,0.5-6.8,1.2-10.1,1.9c-3.3,0.8-6.6,1.6-9.7,2.5
			c1.9-8,4-15.7,6.3-23.1c2.3-7.4,4.9-14.5,7.6-21.3c-3,0.6-6.1,1.7-9,3.2c-3,1.5-5.9,3.3-8.6,5.4c0-1.4-0.1-2.8-0.2-4.1
			c-0.1-1.3-0.2-2.6-0.4-3.9c-0.3-1.8-0.7-3.5-1.1-5.2c-0.5-1.7-1.1-3.3-1.9-5c2.7-0.1,5.5-0.3,8.3-0.6c2.8-0.3,5.7-0.7,8.6-1.1
			c3.7-0.6,7.3-1.3,10.9-2.1C280.6,279.2,284,278.3,287.4,277.3z"/>
		<path class="st218" d="M333.3,325.6c-1.3,0-2.6,0-4,0c-1.4,0.1-2.8,0.2-4.3,0.4c-1.5,0.2-3.1,0.4-4.8,0.6
			c-1.7,0.3-3.5,0.5-5.5,0.8c-0.9,0.1-2,0.3-3.3,0.6c-1.3,0.2-2.7,0.5-4.1,0.8c-1.5,0.3-3,0.7-4.5,1.1c-1.5,0.4-3,0.9-4.5,1.4
			c0.4-1.2,0.6-2.7,0.7-4.4c0.1-1.7,0.2-3.6,0.1-5.5c0-1.9-0.1-3.9-0.3-5.9s-0.3-3.8-0.5-5.5c-0.2-1.7-0.4-3.2-0.6-4.4
			c-0.2-1.2-0.3-2.1-0.4-2.6c0-0.1-0.1-0.5-0.2-1.1c-0.1-0.7-0.3-1.5-0.5-2.6s-0.4-2.3-0.7-3.6c-0.3-1.4-0.6-2.8-0.9-4.2
			c-0.3-1.5-0.7-2.9-1-4.4c-0.4-1.5-0.8-2.9-1.1-4.2c-0.4-1.3-0.8-2.5-1.2-3.5c-0.4-1-0.8-1.8-1.2-2.4c2.5,0,4.9-0.2,7.2-0.4
			c2.4-0.2,4.6-0.5,6.8-0.8c2.7-0.4,5.2-0.9,7.5-1.4c2.3-0.5,4.3-1,6-1.5c2-0.5,3.8-1.1,5.4-1.6l2.7,17.2c-1.6-1.1-3.2-1.9-4.6-2.4
			c-1.4-0.5-2.6-0.9-3.7-1c-1.2-0.2-2.4-0.3-3.4-0.1c-1.2,0.2-2.2,0.5-2.9,0.9c-0.7,0.4-1.3,0.9-1.6,1.5c-0.4,0.5-0.6,1.1-0.6,1.8
			s0,1.2,0.1,1.9c0.1,0.6,0.3,1.3,0.6,1.9c0.3,0.6,0.7,1.1,1.1,1.6c0.5,0.5,1,0.8,1.7,1c0.7,0.2,1.4,0.3,2.3,0.1
			c0.7-0.1,1.3-0.4,1.9-0.8c0.5-0.4,1-0.9,1.3-1.4c0.4-0.5,0.8-1.2,1.1-1.8l2.4,15c-0.5-0.9-1.1-1.5-1.7-2c-0.6-0.5-1.2-0.8-1.7-0.9
			c-0.5-0.2-1-0.3-1.4-0.3c-0.4,0-0.7,0-0.8,0c-1.6,0.3-2.7,0.9-3.3,2c-0.6,1.1-0.8,2.4-0.6,4c0.2,1.1,0.5,2.1,0.8,2.8
			c0.4,0.7,0.8,1.3,1.3,1.7c0.5,0.4,1.1,0.7,1.7,0.8c0.6,0.1,1.2,0.1,1.9,0c1-0.2,2-0.5,3.1-1.2c1.1-0.6,2-1.4,3-2.3
			c0.9-0.9,1.7-1.9,2.5-3c0.7-1.1,1.3-2.2,1.6-3.2L333.3,325.6z"/>
		<path class="st218" d="M357.2,321c-0.5,0-1,0.1-1.7,0.1c-0.5,0-1.2,0.1-2,0.2c-0.8,0.1-1.6,0.2-2.6,0.4c-1.9,0.3-4.1,0.7-6.7,1.3
			c-2.5,0.6-5.3,1.4-8.3,2.3c0.4-1.2,0.6-2.7,0.7-4.4c0.1-1.8,0.2-3.6,0.1-5.6c0-2-0.2-4-0.3-6c-0.2-2-0.3-3.9-0.5-5.6
			c-0.2-1.7-0.4-3.2-0.6-4.5c-0.2-1.3-0.3-2.1-0.4-2.6c0-0.1-0.1-0.5-0.2-1.1c-0.1-0.7-0.3-1.5-0.5-2.6c-0.2-1-0.4-2.3-0.7-3.6
			c-0.3-1.4-0.6-2.8-0.9-4.2c-0.3-1.5-0.7-2.9-1-4.4c-0.4-1.5-0.8-2.9-1.1-4.2c-0.4-1.3-0.8-2.5-1.2-3.5c-0.4-1-0.8-1.8-1.2-2.4
			c2.5,0.1,4.8,0,6.9-0.2c2.1-0.2,3.9-0.4,5.5-0.6c1.1-0.2,2-0.3,2.9-0.5c0.8-0.2,1.5-0.3,2.1-0.5c0.6-0.2,1.2-0.3,1.7-0.5
			c1.9,5,3.8,9.7,5.9,13.9c2,4.2,4.2,8.1,6.5,11.6l-0.2-1.5c-0.7-4-1.4-7.7-2.2-11.1c-0.3-1.5-0.7-2.9-1-4.4
			c-0.4-1.5-0.7-2.9-1.1-4.2c-0.4-1.3-0.8-2.5-1.2-3.5c-0.4-1-0.8-1.8-1.2-2.4c2.5,0.1,4.8,0,6.9-0.2c2.1-0.2,3.9-0.4,5.5-0.6
			c1.1-0.2,2-0.3,2.9-0.5c0.8-0.2,1.5-0.3,2.1-0.5c0.6-0.2,1.2-0.3,1.7-0.5c-0.1,1.4-0.1,3,0,4.7c0,1.7,0.1,3.6,0.3,5.5
			c0.1,1.9,0.3,4,0.6,6.1c0.2,2.1,0.5,4.3,0.9,6.5c0.4,2.5,0.9,5.1,1.4,7.7c0.5,2.6,1.1,5.2,1.8,7.7c0.7,2.5,1.4,5,2.3,7.4
			c0.8,2.4,1.7,4.7,2.7,6.9c-0.4,0-1,0.1-1.6,0.1c-0.5,0-1.2,0.1-1.9,0.2c-0.7,0.1-1.6,0.2-2.5,0.4c-1.8,0.3-3.8,0.7-6.1,1.2
			c-2.3,0.5-4.7,1.3-7.3,2.2c-0.4-2.5-1-5-1.8-7.3c-0.8-2.3-1.7-4.6-2.8-6.9c-1.1-2.2-2.3-4.4-3.7-6.5c-1.4-2.1-2.9-4.1-4.5-6.1
			c0.4,2.3,0.8,4.6,1.4,6.9c0.5,2.3,1.1,4.6,1.8,6.9c0.6,2.3,1.3,4.5,2.1,6.6C355.5,317,356.3,319.1,357.2,321z"/>
	</g>
</g>
</svg>
