<?xml version="1.0" encoding="utf-8"?>
<!-- Generator: Adobe Illustrator 24.1.0, SVG Export Plug-In . SVG Version: 6.00 Build 0)  -->
<svg version="1.1" xmlns="http://www.w3.org/2000/svg" xmlns:xlink="http://www.w3.org/1999/xlink" x="0px" y="0px"
	 viewBox="0 0 708.7 708.7" style="enable-background:new 0 0 708.7 708.7;" xml:space="preserve">
<style type="text/css">
	.st0{fill:#384760;}
	.st1{filter:url(#Adobe_OpacityMaskFilter);}
	.st2{fill:#FFFFFF;}
	.st3{mask:url(#SVGID_1_);}
	.st4{filter:url(#Adobe_OpacityMaskFilter_1_);}
	.st5{filter:url(#Adobe_OpacityMaskFilter_2_);}
	.st6{mask:url(#SVGID_3_);}
	.st7{filter:url(#Adobe_OpacityMaskFilter_3_);}
	.st8{mask:url(#SVGID_4_);}
	.st9{filter:url(#Adobe_OpacityMaskFilter_4_);}
	.st10{mask:url(#SVGID_5_);}
	.st11{filter:url(#Adobe_OpacityMaskFilter_5_);}
	.st12{mask:url(#SVGID_6_);}
	.st13{filter:url(#Adobe_OpacityMaskFilter_6_);}
	.st14{mask:url(#SVGID_7_);}
	.st15{clip-path:url(#SVGID_9_);fill:#001046;}
	.st16{clip-path:url(#SVGID_9_);fill:#001147;}
	.st17{clip-path:url(#SVGID_9_);fill:#001248;}
	.st18{clip-path:url(#SVGID_9_);fill:#011248;}
	.st19{clip-path:url(#SVGID_9_);fill:#011349;}
	.st20{clip-path:url(#SVGID_9_);fill:#01144A;}
	.st21{clip-path:url(#SVGID_9_);fill:#01154B;}
	.st22{clip-path:url(#SVGID_9_);fill:#02164C;}
	.st23{clip-path:url(#SVGID_9_);fill:#02174D;}
	.st24{clip-path:url(#SVGID_9_);fill:#02184E;}
	.st25{clip-path:url(#SVGID_9_);fill:#02194F;}
	.st26{clip-path:url(#SVGID_9_);fill:#031A50;}
	.st27{clip-path:url(#SVGID_9_);fill:#031B51;}
	.st28{clip-path:url(#SVGID_9_);fill:#031C52;}
	.st29{clip-path:url(#SVGID_9_);fill:#031D53;}
	.st30{clip-path:url(#SVGID_9_);fill:#041E54;}
	.st31{clip-path:url(#SVGID_9_);fill:#041F55;}
	.st32{clip-path:url(#SVGID_9_);fill:#042056;}
	.st33{clip-path:url(#SVGID_9_);fill:#042157;}
	.st34{clip-path:url(#SVGID_9_);fill:#052258;}
	.st35{clip-path:url(#SVGID_9_);fill:#052359;}
	.st36{clip-path:url(#SVGID_9_);fill:#05245A;}
	.st37{clip-path:url(#SVGID_9_);fill:#06255B;}
	.st38{clip-path:url(#SVGID_9_);fill:#06265C;}
	.st39{clip-path:url(#SVGID_9_);fill:#06275D;}
	.st40{clip-path:url(#SVGID_9_);fill:#06285E;}
	.st41{clip-path:url(#SVGID_9_);fill:#07295F;}
	.st42{clip-path:url(#SVGID_9_);fill:#072A60;}
	.st43{clip-path:url(#SVGID_9_);fill:#072B61;}
	.st44{clip-path:url(#SVGID_9_);fill:#072C62;}
	.st45{clip-path:url(#SVGID_9_);fill:#082D63;}
	.st46{clip-path:url(#SVGID_9_);fill:#082E64;}
	.st47{clip-path:url(#SVGID_9_);fill:#082F65;}
	.st48{clip-path:url(#SVGID_9_);fill:#083066;}
	.st49{clip-path:url(#SVGID_9_);fill:#093167;}
	.st50{clip-path:url(#SVGID_9_);fill:#093268;}
	.st51{clip-path:url(#SVGID_9_);fill:#093369;}
	.st52{clip-path:url(#SVGID_9_);fill:#09346A;}
	.st53{clip-path:url(#SVGID_9_);fill:#0A356B;}
	.st54{clip-path:url(#SVGID_9_);fill:#0A366C;}
	.st55{clip-path:url(#SVGID_9_);fill:#0A376D;}
	.st56{clip-path:url(#SVGID_9_);fill:#0B386E;}
	.st57{clip-path:url(#SVGID_9_);fill:#0B396F;}
	.st58{clip-path:url(#SVGID_9_);fill:#0B3A70;}
	.st59{clip-path:url(#SVGID_9_);fill:#0B3B71;}
	.st60{clip-path:url(#SVGID_9_);fill:#0C3C72;}
	.st61{clip-path:url(#SVGID_9_);fill:#0C3D73;}
	.st62{clip-path:url(#SVGID_9_);fill:#0C3E74;}
	.st63{clip-path:url(#SVGID_9_);fill:#0C3F75;}
	.st64{clip-path:url(#SVGID_9_);fill:#0D4076;}
	.st65{clip-path:url(#SVGID_9_);fill:#0D4177;}
	.st66{clip-path:url(#SVGID_9_);fill:#0D4278;}
	.st67{clip-path:url(#SVGID_9_);fill:#0D4379;}
	.st68{clip-path:url(#SVGID_9_);fill:#0E447A;}
	.st69{clip-path:url(#SVGID_9_);fill:#0E457B;}
	.st70{clip-path:url(#SVGID_9_);fill:#0E467C;}
	.st71{clip-path:url(#SVGID_9_);fill:#0F477D;}
	.st72{clip-path:url(#SVGID_9_);fill:#0F487E;}
	.st73{clip-path:url(#SVGID_9_);fill:#0F497F;}
	.st74{clip-path:url(#SVGID_9_);fill:#0F4A80;}
	.st75{clip-path:url(#SVGID_9_);fill:#104B81;}
	.st76{clip-path:url(#SVGID_9_);fill:#104C82;}
	.st77{clip-path:url(#SVGID_9_);fill:#104D83;}
	.st78{clip-path:url(#SVGID_9_);fill:#104E84;}
	.st79{clip-path:url(#SVGID_9_);fill:#114F85;}
	.st80{clip-path:url(#SVGID_9_);fill:#115086;}
	.st81{clip-path:url(#SVGID_9_);fill:#115187;}
	.st82{clip-path:url(#SVGID_9_);fill:#115288;}
	.st83{clip-path:url(#SVGID_9_);fill:#125389;}
	.st84{clip-path:url(#SVGID_9_);fill:#12548A;}
	.st85{clip-path:url(#SVGID_9_);fill:#12558B;}
	.st86{clip-path:url(#SVGID_9_);fill:#13568C;}
	.st87{clip-path:url(#SVGID_9_);fill:#13578D;}
	.st88{clip-path:url(#SVGID_9_);fill:#13588E;}
	.st89{clip-path:url(#SVGID_9_);fill:#13598F;}
	.st90{clip-path:url(#SVGID_9_);fill:#145A90;}
	.st91{clip-path:url(#SVGID_9_);fill:#145B91;}
	.st92{clip-path:url(#SVGID_9_);fill:#145C92;}
	.st93{clip-path:url(#SVGID_9_);fill:#145D93;}
	.st94{clip-path:url(#SVGID_9_);fill:#155E94;}
	.st95{clip-path:url(#SVGID_9_);fill:#155F95;}
	.st96{clip-path:url(#SVGID_9_);fill:#156197;}
	.st97{clip-path:url(#SVGID_9_);fill:#166298;}
	.st98{clip-path:url(#SVGID_9_);fill:#166399;}
	.st99{clip-path:url(#SVGID_9_);fill:#16649A;}
	.st100{clip-path:url(#SVGID_9_);fill:#16659B;}
	.st101{clip-path:url(#SVGID_9_);fill:#17669C;}
	.st102{clip-path:url(#SVGID_9_);fill:#17679D;}
	.st103{clip-path:url(#SVGID_9_);fill:#17689E;}
	.st104{clip-path:url(#SVGID_9_);fill:#17699F;}
	.st105{clip-path:url(#SVGID_9_);fill:#186AA0;}
	.st106{clip-path:url(#SVGID_9_);fill:#186BA1;}
	.st107{clip-path:url(#SVGID_9_);fill:#186CA2;}
	.st108{clip-path:url(#SVGID_9_);fill:#196DA3;}
	.st109{clip-path:url(#SVGID_9_);fill:#196EA4;}
	.st110{clip-path:url(#SVGID_9_);fill:#196FA5;}
	.st111{clip-path:url(#SVGID_9_);fill:#1970A6;}
	.st112{clip-path:url(#SVGID_9_);fill:#1A71A7;}
	.st113{clip-path:url(#SVGID_9_);fill:#1A73A9;}
	.st114{clip-path:url(#SVGID_9_);fill:#1A74AA;}
	.st115{clip-path:url(#SVGID_9_);fill:#1B75AB;}
	.st116{clip-path:url(#SVGID_9_);fill:#1B76AC;}
	.st117{clip-path:url(#SVGID_9_);fill:#1B77AD;}
	.st118{clip-path:url(#SVGID_9_);fill:#1B78AE;}
	.st119{clip-path:url(#SVGID_9_);fill:#1C79AF;}
	.st120{clip-path:url(#SVGID_9_);fill:#1C7AB0;}
	.st121{clip-path:url(#SVGID_9_);fill:#1C7BB1;}
	.st122{clip-path:url(#SVGID_9_);fill:#1D7CB2;}
	.st123{clip-path:url(#SVGID_9_);fill:#1D7DB3;}
	.st124{clip-path:url(#SVGID_9_);fill:#1D7EB4;}
	.st125{clip-path:url(#SVGID_9_);fill:#1D7FB5;}
	.st126{clip-path:url(#SVGID_9_);fill:#1E81B7;}
	.st127{clip-path:url(#SVGID_9_);fill:#1E82B8;}
	.st128{clip-path:url(#SVGID_9_);fill:#1E83B9;}
	.st129{clip-path:url(#SVGID_9_);fill:#1F84BA;}
	.st130{clip-path:url(#SVGID_9_);fill:#1F85BB;}
	.st131{clip-path:url(#SVGID_9_);fill:#1F86BC;}
	.st132{clip-path:url(#SVGID_9_);fill:#1F87BD;}
	.st133{clip-path:url(#SVGID_9_);fill:#2088BE;}
	.st134{clip-path:url(#SVGID_9_);fill:#2089BF;}
	.st135{clip-path:url(#SVGID_9_);fill:#208AC0;}
	.st136{clip-path:url(#SVGID_9_);fill:#218CC2;}
	.st137{clip-path:url(#SVGID_9_);fill:#218DC3;}
	.st138{clip-path:url(#SVGID_9_);fill:#218EC4;}
	.st139{clip-path:url(#SVGID_9_);fill:#228FC5;}
	.st140{clip-path:url(#SVGID_9_);fill:#2290C6;}
	.st141{clip-path:url(#SVGID_9_);fill:#2291C7;}
	.st142{clip-path:url(#SVGID_9_);fill:#2292C8;}
	.st143{clip-path:url(#SVGID_9_);fill:#2393C9;}
	.st144{clip-path:url(#SVGID_9_);fill:#2394CA;}
	.st145{clip-path:url(#SVGID_9_);fill:#2396CC;}
	.st146{clip-path:url(#SVGID_9_);fill:#2497CD;}
	.st147{clip-path:url(#SVGID_9_);fill:#2498CE;}
	.st148{clip-path:url(#SVGID_9_);fill:#2499CF;}
	.st149{clip-path:url(#SVGID_9_);fill:#249AD0;}
	.st150{clip-path:url(#SVGID_9_);fill:#259BD1;}
	.st151{clip-path:url(#SVGID_9_);fill:#259CD2;}
	.st152{clip-path:url(#SVGID_9_);fill:#259DD3;}
	.st153{clip-path:url(#SVGID_9_);fill:#269FD5;}
	.st154{clip-path:url(#SVGID_9_);fill:#26A0D6;}
	.st155{clip-path:url(#SVGID_9_);fill:#26A1D7;}
	.st156{clip-path:url(#SVGID_9_);fill:#27A2D8;}
	.st157{clip-path:url(#SVGID_9_);fill:#27A3D9;}
	.st158{clip-path:url(#SVGID_9_);fill:#27A4DA;}
	.st159{clip-path:url(#SVGID_9_);fill:#27A5DB;}
	.st160{clip-path:url(#SVGID_9_);fill:#28A6DC;}
	.st161{clip-path:url(#SVGID_9_);fill:#28A8DE;}
	.st162{clip-path:url(#SVGID_9_);fill:#28A9DF;}
	.st163{clip-path:url(#SVGID_9_);fill:#29AAE0;}
	.st164{clip-path:url(#SVGID_9_);fill:#29ABE1;}
	.st165{clip-path:url(#SVGID_9_);fill:#29ACE2;}
	.st166{clip-path:url(#SVGID_9_);fill:#2AADE3;}
	.st167{clip-path:url(#SVGID_9_);fill:#2AAEE4;}
	.st168{clip-path:url(#SVGID_9_);fill:#2AB0E6;}
	.st169{clip-path:url(#SVGID_9_);fill:#2AB1E7;}
	.st170{clip-path:url(#SVGID_9_);fill:#2BB2E8;}
	.st171{clip-path:url(#SVGID_9_);fill:#2BB3E9;}
	.st172{clip-path:url(#SVGID_9_);fill:#2BB4EA;}
	.st173{clip-path:url(#SVGID_9_);fill:#2CB5EB;}
	.st174{clip-path:url(#SVGID_9_);fill:#2CB6EC;}
	.st175{clip-path:url(#SVGID_9_);fill:#2CB8EE;}
	.st176{clip-path:url(#SVGID_9_);fill:#2DB9EF;}
	.st177{clip-path:url(#SVGID_9_);fill:#2DBAF0;}
	.st178{clip-path:url(#SVGID_9_);fill:#2DBBF1;}
	.st179{clip-path:url(#SVGID_9_);fill:#2DBCF2;}
	.st180{clip-path:url(#SVGID_9_);fill:#2EBDF3;}
	.st181{clip-path:url(#SVGID_9_);fill:#2EBFF5;}
	.st182{clip-path:url(#SVGID_9_);fill:#2EC0F6;}
	.st183{clip-path:url(#SVGID_9_);fill:#2FC1F7;}
	.st184{clip-path:url(#SVGID_9_);fill:#2FC2F8;}
	.st185{fill:#0C1282;}
	.st186{fill:#BF1713;}
	.st187{filter:url(#Adobe_OpacityMaskFilter_7_);}
	.st188{mask:url(#SVGID_10_);}
	.st189{fill:#7A0505;}
	.st190{fill:#BDA700;}
	.st191{fill:#FFEF08;}
	.st192{filter:url(#Adobe_OpacityMaskFilter_8_);}
	.st193{fill:#F7DBCB;}
	.st194{fill:#756A59;}
	.st195{fill:#FFF4F0;}
	.st196{filter:url(#Adobe_OpacityMaskFilter_9_);}
	.st197{mask:url(#SVGID_12_);}
	.st198{fill:#C49D87;}
	.st199{fill:#C1181A;}
	.st200{fill:#C01818;}
	.st201{filter:url(#Adobe_OpacityMaskFilter_10_);}
	.st202{mask:url(#SVGID_13_);}
	.st203{filter:url(#Adobe_OpacityMaskFilter_11_);}
	.st204{mask:url(#SVGID_14_);}
	.st205{fill:#1D1D1B;}
	.st206{fill:#473224;}
	.st207{fill:#3D2717;}
	.st208{filter:url(#Adobe_OpacityMaskFilter_12_);}
	.st209{mask:url(#SVGID_15_);}
	.st210{filter:url(#Adobe_OpacityMaskFilter_13_);}
	.st211{mask:url(#SVGID_16_);}
	.st212{fill:#C99841;}
	.st213{fill:#9E4E3E;}
	.st214{fill:#F7D42B;}
	.st215{fill:#D1A371;}
	.st216{fill:#895B3D;}
	.st217{fill:#F7DBCB;stroke:#756A59;stroke-miterlimit:10;}
	.st218{fill:#5CD3FF;stroke:#101768;stroke-width:0.5;stroke-miterlimit:10;}
</style>
<g id="Warstwa_1">
</g>
<g id="Warstwa_2">
	<g>
		<g>
			<g>
				<path class="st0" d="M452.1,270.1c-11.2,20.8-162.5,97.2-162.5,97.2c-3.5,10.2,17.6,22.3,17.6,22.3
					c84.3-43.9,154.4-99.5,154.4-99.5L452.1,270.1z"/>
			</g>
			<g>
				<path class="st0" d="M448.4,272.7c-1.9,1.5-3.9,3-5.8,4.5c-7,5.7-10.7,4.5-12.2,7.9c-1.7,4,1.9,9.1,5,13.4
					c3.3,4.6,6.1,8.5,10.1,8.4c3.8-0.1,3.5-5.3,9.6-10.1c5.9-4.7,10.8-3.8,11.6-7c0.4-1.9-1.2-2.8-5.6-8.9c-5.1-7.2-6.4-11-9-10.8
					C451.4,270.2,451.2,270.4,448.4,272.7z"/>
			</g>
			<g>
				<path class="st0" d="M461.6,290.2c7.8,4.8,13.6,2.4,21.2,1.4c12.6-1.6,14.1-5.9,21.4-4.5c13,2.4,20.1,24.1,25.9,22.6
					c3.5-0.9,3-11.5,1.4-17.5c-2.5-9.3-10.2-21.6-9-22.4c4.9-3.6,22-0.9,29.3,8.9c6.4,8.5-0.6,14.9,1.8,15.6
					c2.5,0.8,12.8-12.5,11.4-27.8c-1.1-11.4-9.3-22.8-20.1-27.9c-18.2-8.5-26.7,0-30.5,0.1c-7.6,0.3,3.6-2.6-12.1-19.3
					c-7-7.4-19.2-8.6-21.1-5.7c-1.6,2.5,5,6.3,4.5,13.4c-0.3,5.2-4.2,8.9-8.4,13c-8.6,8.2-12.5,6.1-18.6,12.7
					c-1.5,1.6-9.6,10.2-7.6,20.1C452.6,281,458.7,288.4,461.6,290.2z"/>
			</g>
			<g>
				<circle class="st0" cx="474.3" cy="214.9" r="9.6"/>
			</g>
			<g>
				<circle class="st0" cx="549.2" cy="300.6" r="9.6"/>
			</g>
			<g>
				<circle class="st0" cx="530.1" cy="317.1" r="9.6"/>
			</g>
			<g>
				
					<ellipse transform="matrix(0.9476 -0.3195 0.3195 0.9476 -62.6998 167.1035)" class="st0" cx="477.9" cy="274.6" rx="25.2" ry="17.7"/>
			</g>
		</g>
		<g>
			<g>
				<path class="st206" d="M460.6,280.8C449.4,301.6,298,378,298,378c-3.5,10.2,17.6,22.3,17.6,22.3
					c84.3-43.9,154.4-99.5,154.4-99.5L460.6,280.8z"/>
				<path class="st207" d="M297.6,383.5c-0.6-1.9-0.8-3.8-0.1-5.7l0.1-0.2l0.2-0.1c1.5-0.8,151.3-76.6,162.3-97l0.5-1l10.2,21.5
					l-0.4,0.3c-0.7,0.6-71.1,56.1-154.5,99.5l-0.3,0.1l-0.3-0.2C314.7,400.4,300.6,392.2,297.6,383.5z M298.5,378.4
					c-2.7,9,14.8,19.8,17.2,21.2c80.1-41.7,148.1-94.6,153.7-99l-8.8-18.7C445.8,303.7,307.2,374,298.5,378.4z"/>
			</g>
			<g>
				<path class="st215" d="M456.9,283.3c-1.9,1.5-3.9,3-5.8,4.5c-7,5.7-10.7,4.5-12.2,7.9c-1.7,4,1.9,9.1,5,13.4
					c3.3,4.6,6.1,8.5,10.1,8.4c3.8-0.1,3.5-5.3,9.6-10.1c5.9-4.7,10.8-3.8,11.6-7c0.4-1.9-1.2-2.8-5.6-8.9c-5.1-7.2-6.4-11-9-10.8
					C459.9,280.8,459.7,281.1,456.9,283.3z"/>
				<path class="st216" d="M438.5,300.9c-0.6-1.9-0.8-3.7-0.1-5.4c0.8-1.9,2.3-2.5,4.3-3.4c1.9-0.8,4.6-1.9,8-4.7
					c1-0.8,2.1-1.6,3.1-2.5c0.9-0.7,1.8-1.4,2.7-2.1l1-0.8c2-1.6,2.3-1.8,3-1.9c2.1-0.1,3.4,1.9,5.8,5.5c1,1.5,2.2,3.4,3.7,5.5
					c1.4,2,2.6,3.5,3.5,4.6c1.8,2.3,2.6,3.3,2.2,4.8c-0.4,2-2.2,2.6-4.4,3.4c-2,0.7-4.5,1.7-7.3,3.8c-2.8,2.2-4.2,4.5-5.4,6.4
					c-1.3,2.1-2.3,3.7-4.5,3.8c-4.4,0.2-7.3-3.9-10.6-8.6C441.6,306.9,439.4,303.9,438.5,300.9z M457.2,283.8
					c-0.9,0.7-1.8,1.4-2.7,2.1c-1,0.8-2.1,1.6-3.1,2.4c-3.6,2.9-6.3,4.1-8.3,4.9c-1.9,0.8-3.1,1.3-3.7,2.8c-1.6,3.7,2,8.8,4.9,12.8
					c3.2,4.4,5.9,8.3,9.6,8.1c1.6-0.1,2.3-1.1,3.6-3.2c1.2-1.9,2.6-4.3,5.7-6.7c2.9-2.3,5.6-3.3,7.6-4c2.3-0.8,3.4-1.3,3.7-2.6
					c0.2-1-0.2-1.6-2-3.8c-0.9-1.1-2-2.6-3.5-4.6c-1.5-2.2-2.8-4-3.7-5.6c-2.2-3.4-3.3-5.1-4.7-5c-0.4,0-0.6,0.2-2.3,1.6
					L457.2,283.8z"/>
			</g>
			<g>
				<path class="st186" d="M470.1,300.8c7.8,4.8,13.6,2.4,21.2,1.4c12.6-1.6,14.1-5.9,21.4-4.5c13,2.4,20.1,24.1,25.9,22.6
					c3.5-0.9,3-11.5,1.4-17.5c-2.5-9.3-10.2-21.6-9-22.4c4.9-3.6,22-0.9,29.3,8.9c6.4,8.5-0.6,14.9,1.8,15.6
					c2.5,0.8,12.8-12.5,11.4-27.8c-1.1-11.4-9.3-22.8-20.1-27.9c-18.2-8.5-26.7,0-30.5,0.1c-7.6,0.3,3.6-2.6-12.1-19.3
					c-7-7.4-19.2-8.6-21.1-5.7c-1.6,2.5,5,6.3,4.5,13.4c-0.3,5.2-4.2,8.9-8.4,13c-8.6,8.2-12.5,6.1-18.6,12.7
					c-1.5,1.6-9.6,10.2-7.6,20.1C461.1,291.7,467.2,299,470.1,300.8z"/>
				<path d="M459.7,286.9c-0.3-1-0.6-2-0.8-3.1c-1.8-8.9,4.1-16.8,7.7-20.7c3.1-3.3,5.6-4.5,8.3-5.7c2.8-1.3,6-2.8,10.3-7
					c4.1-3.8,7.9-7.5,8.2-12.6c0.2-3.8-1.6-6.6-3.1-8.8c-1.3-1.9-2.2-3.4-1.4-4.8c0.6-0.9,1.9-1.5,3.8-1.7c5-0.5,13.1,1.9,18.2,7.3
					c9.5,10.1,9.3,15.2,9.3,17.7c0,0.5,0,1,0.1,1.1c0.3,0.3,1.8,0.2,2.3,0.2c0.8,0,1.9-0.5,3.3-1.1c5-2.1,13.3-5.6,27.5,1
					c10.9,5.1,19.3,16.8,20.4,28.3c1.2,12.9-5.7,24.3-9.7,27.5c-1,0.8-1.8,1.1-2.4,0.9c-0.4-0.1-0.7-0.4-0.8-0.6
					c-0.3-0.6-0.1-1.5,0.4-2.8c0.9-2.7,2.4-7.1-1.7-12.5c-7.4-9.8-23.8-12-28.4-8.9c0,0.8,1.5,3.9,2.9,6.7
					c2.2,4.6,4.9,10.2,6.3,15.2c1.3,4.8,2,13.2,0,16.7c-0.5,0.8-1.1,1.3-1.8,1.5c-2.9,0.7-5.8-3.2-9.4-8.1
					c-4.3-5.9-9.7-13.2-16.8-14.5c-3.7-0.7-5.8,0.1-8.9,1.3c-2.8,1.1-6.3,2.4-12.3,3.2c-1.4,0.2-2.7,0.4-4,0.6
					c-5.9,1-11,1.9-17.6-2.1C467.2,299.7,462.1,293.8,459.7,286.9z M494.1,233.4c0.5,1.4,0.7,2.9,0.6,4.6c-0.3,5.6-4.5,9.5-8.6,13.3
					c-4.5,4.3-7.8,5.8-10.6,7.2c-2.7,1.3-5.1,2.4-8,5.5c-3.5,3.7-9.1,11.2-7.4,19.6c1.6,7.8,7.6,15,10.3,16.7l0,0
					c6.2,3.8,11.1,3,16.8,2c1.3-0.2,2.6-0.4,4-0.6c5.8-0.8,9.2-2.1,12-3.1c3.2-1.2,5.5-2.1,9.6-1.4c7.5,1.4,13,8.9,17.5,15
					c3.2,4.4,6,8.2,8.2,7.6c0.4-0.1,0.8-0.4,1.1-1c1.7-2.9,1.3-10.6-0.1-15.8c-1.3-4.8-4-10.4-6.2-15c-2.8-5.7-3.5-7.4-2.6-8.1
					c5.4-4,22.6-0.9,30.1,9.1c4.4,5.8,2.7,10.9,1.8,13.6c-0.2,0.7-0.6,1.6-0.4,1.9c0.2,0.1,0.6,0,1.4-0.7c3.7-3,10.4-14.2,9.3-26.5
					c-1-11.2-9.1-22.4-19.7-27.4c-13.7-6.4-21.7-3-26.5-1c-1.5,0.6-2.7,1.1-3.7,1.2c-1.7,0.1-2.7,0-3.2-0.5c-0.5-0.5-0.5-1.2-0.4-2
					c0.1-2.3,0.2-7.2-8.9-16.9c-4.8-5.1-12.5-7.4-17.2-6.9c-1.5,0.1-2.6,0.6-3,1.2c-0.5,0.7,0.2,1.8,1.3,3.6
					C492.3,229.7,493.4,231.4,494.1,233.4z"/>
			</g>
			<g>
				<circle class="st214" cx="482.8" cy="225.5" r="9.6"/>
				<path d="M473.4,228.7c-1.7-5.2,1-10.8,6.2-12.5c5.2-1.7,10.8,1,12.5,6.2c1.7,5.2-1,10.8-6.2,12.5
					C480.8,236.6,475.2,233.8,473.4,228.7z M491.6,222.5c-1.6-4.9-6.9-7.5-11.8-5.8c-4.9,1.6-7.5,6.9-5.8,11.8
					c1.6,4.9,6.9,7.5,11.8,5.8S493.2,227.4,491.6,222.5z"/>
			</g>
			<g>
				<circle class="st214" cx="557.7" cy="311.2" r="9.6"/>
				<path d="M548.3,314.4c-1.7-5.2,1-10.8,6.2-12.5c5.2-1.7,10.8,1,12.5,6.2c1.7,5.2-1,10.8-6.2,12.5
					C555.7,322.3,550.1,319.5,548.3,314.4z M566.5,308.3c-1.6-4.9-6.9-7.5-11.8-5.8s-7.5,6.9-5.8,11.8s6.9,7.5,11.8,5.8
					C565.5,318.4,568.1,313.1,566.5,308.3z"/>
			</g>
			<g>
				<circle class="st214" cx="538.6" cy="327.8" r="9.6"/>
				<path d="M529.2,330.9c-1.7-5.2,1-10.8,6.2-12.5c5.2-1.7,10.8,1,12.5,6.2s-1,10.8-6.2,12.5C536.6,338.9,531,336.1,529.2,330.9z
					 M547.4,324.8c-1.6-4.9-6.9-7.5-11.8-5.8s-7.5,6.9-5.8,11.8s6.9,7.5,11.8,5.8C546.4,335,549,329.7,547.4,324.8z"/>
			</g>
			<g>
				
					<ellipse transform="matrix(0.9476 -0.3195 0.3195 0.9476 -65.6549 170.3777)" class="st193" cx="486.4" cy="285.3" rx="25.2" ry="17.7"/>
				<path class="st194" d="M462,293.5c-3.2-9.6,5.1-21,18.6-25.6c13.5-4.5,27.1-0.5,30.3,9.1c3.2,9.6-5.1,21-18.6,25.6
					C478.8,307.2,465.2,303.1,462,293.5z M509.8,277.4c-3-8.9-16-12.7-28.8-8.4c-12.9,4.3-20.9,15.2-17.9,24.1
					c3,8.9,16,12.7,28.8,8.4C504.8,297.2,512.8,286.4,509.8,277.4z"/>
			</g>
		</g>
		<g>
			<path class="st216" d="M455.3,291.7c-0.4-1.3-0.7-2.4-0.9-3.4c-0.1-0.3,0.2-0.6,0.5-0.7c0.3-0.1,0.6,0.2,0.7,0.5
				c0.4,2.3,1.4,5.8,4,9.2c4.2,5.4,7.8,6.2,9.3,6.6c0.3,0.1,0.5,0.4,0.4,0.7c-0.1,0.3-0.4,0.5-0.7,0.4c-1.6-0.4-5.5-1.3-9.9-7
				C457,295.9,455.9,293.7,455.3,291.7z"/>
		</g>
		<g>
			<path class="st216" d="M449,296.5c-0.3-0.9-0.5-1.8-0.6-2.4c-0.1-0.3,0.1-0.6,0.5-0.7c0.3-0.1,0.6,0.1,0.7,0.5
				c0.4,2.1,1.7,6.2,5.3,9.6c3.9,3.7,6.1,4.4,7.4,4.6c0.3,0.1,0.5,0.4,0.5,0.7c-0.1,0.3-0.4,0.5-0.7,0.5c-1.5-0.2-3.9-1-8-4.9
				C451.3,301.8,449.8,298.8,449,296.5z"/>
		</g>
		<g>
			<path class="st216" d="M444.3,300.7c-1.1-3.2-1.5-6.6-1-8.5c0.1-0.3,0.4-0.5,0.7-0.4c0.3,0.1,0.5,0.4,0.4,0.7
				c-0.5,1.7-0.1,5.5,1.6,9.4c2.9,7,8.1,10.3,9,10.6c0.3,0.1,0.4,0.5,0.3,0.8c-0.1,0.3-0.5,0.4-0.8,0.3c-1.2-0.5-6.6-4-9.6-11.3
				C444.7,301.8,444.5,301.3,444.3,300.7z"/>
		</g>
	</g>
	<g>
		<g>
			<g>
				<path class="st0" d="M140.2,429.8c0.1,2.9,0.3,5.9,0.4,8.8c0.5,9.7,0.9,19.5,1.4,29.2l29.9-1.5l-1.5-29.9
					c3.4-0.2,6.8-0.7,10.2-1.3c-7.9-0.9-15.9-1.9-23.9-3C151.2,431.3,145.7,430.6,140.2,429.8z"/>
			</g>
			<g>
				<path class="st0" d="M190.9,432.2c3.3-1.2,6.3-2.7,9.1-4.6c2.8-1.8,5.2-4,7.3-6.5c2-2.5,3.6-5.4,4.7-8.7c1.1-3.3,1.5-7,1.3-11.1
					c-0.2-3.8-0.9-7.2-2.2-10.2c-1.2-3-2.9-5.6-4.9-7.9c-2-2.3-4.3-4.2-7-5.8c-2.7-1.6-5.6-2.9-8.6-3.9c-3.1-1-6.3-1.7-9.6-2
					c-3.3-0.4-6.6-0.5-9.9-0.3c-5.8,0.3-11.4,1-16.9,2.1c-5.4,1.1-10.8,2.6-16.2,4.5c0,5.3,0.2,10.6,0.5,15.8
					c0.3,5.2,0.6,10.4,0.7,15.7c0.3,6.9,0.6,13.8,0.9,20.6c5.5,0.8,11.1,1.5,16.5,2.3c8,1.1,16,2.1,23.9,3c0.1,0,0.1,0,0.2,0
					C184.3,434.4,187.7,433.5,190.9,432.2z M173.6,416.5c-0.6,0-1.2,0.1-1.7,0.1c-0.6,0-1.1,0-1.7,0l-0.2-18.8
					c0.8-0.3,1.7-0.5,2.7-0.7c1-0.2,1.9-0.3,2.8-0.4c2.7-0.1,4.9,0.5,6.7,2c1.8,1.5,2.7,3.6,2.9,6.4c0.1,1.6-0.2,3.1-0.8,4.4
					c-0.6,1.3-1.4,2.5-2.5,3.5c-1.1,1-2.3,1.8-3.7,2.4C176.6,416,175.1,416.4,173.6,416.5z"/>
			</g>
			<g>
				<path class="st0" d="M220.4,461.4l27-2.8l0.6-19c-9.6-0.2-19.1-0.5-28.7-1.1L220.4,461.4z"/>
			</g>
			<g>
				<path class="st0" d="M216,374.4l3.3,64.1c9.6,0.6,19.2,1,28.7,1.1l2-68.7L216,374.4z"/>
			</g>
			<g>
				<path class="st0" d="M302.7,429.4l-15.9,0.8l0.2-9.4l19.2-1.6l0.4-20l-19.1,1l0.2-8.1l27.1-2.8c0.1-4,0.2-8,0.2-12
					c0-3.9,0-7.9,0.1-12l-59.1,3l2.1,71.3c18.5,0,37.1-0.8,55.9-2.5c0-2.8,0-5.6,0-8.4L302.7,429.4z"/>
			</g>
			<g>
				<path class="st0" d="M258,439.7l0.6,21.3l55.2-4.1c0-4.7,0-9.3,0-14c0-1.9,0-3.8,0-5.7C295.1,438.9,276.5,439.7,258,439.7z"/>
			</g>
			<g>
				<path class="st0" d="M320.8,436.5c0.2,6.7,0.4,13.5,0.6,20.2l27.6-1.4l-0.2-22c-6.6,0.9-13.2,1.6-19.9,2.3
					C326.2,435.9,323.5,436.2,320.8,436.5z"/>
			</g>
			<g>
				<path class="st0" d="M368,454.7l28.6-7.1l-12.4-19.7c-8.5,1.5-17.1,2.8-25.7,4.1L368,454.7z"/>
			</g>
			<g>
				<path class="st0" d="M386.7,415.3c1.9-2,3.4-4.2,4.5-6.5c1.1-2.3,1.9-4.9,2.3-7.6c0.4-2.7,0.6-5.8,0.4-9.1
					c-0.3-5.3-1.6-10-3.9-13.9c-2.3-3.9-5.3-7.1-8.9-9.6c-3.6-2.5-7.8-4.3-12.4-5.4c-4.6-1.1-9.4-1.5-14.2-1.3
					c-3.2,0.2-6.2,0.4-9.3,0.7c-3,0.3-6,0.7-8.9,1.3c-2.9,0.6-5.8,1.3-8.7,2.1c-2.9,0.9-5.8,1.9-8.7,3.2c0,4.9,0.1,9.8,0.2,14.6
					c0.2,4.8,0.3,9.7,0.5,14.6c0.2,9.8,0.5,19.5,0.8,29.2c0.1,3,0.2,5.9,0.3,8.9c2.7-0.3,5.4-0.6,8.1-0.9c6.7-0.7,13.3-1.4,19.9-2.3
					l0-4.7l7.9-0.7l1.7,4.1c8.6-1.2,17.2-2.6,25.7-4.1l-4.3-6.7C382.6,419.3,384.9,417.3,386.7,415.3z M364.2,401.2
					c-0.9,1.6-2.1,2.9-3.5,4c-1.5,1.1-3.1,1.9-5,2.4c-1.9,0.6-3.7,0.9-5.6,1l-1.5,0.1l-0.2-23.9c0.8-0.3,1.5-0.5,2.3-0.6
					c0.8-0.1,1.6-0.2,2.5-0.3c1.9-0.1,3.6,0.1,5.1,0.7c1.5,0.5,2.7,1.3,3.7,2.4s1.8,2.3,2.4,3.8c0.6,1.5,0.9,3.1,1,4.9
					C365.5,397.7,365.1,399.6,364.2,401.2z"/>
			</g>
			<g>
				<path class="st0" d="M477.7,404.3c-0.3-6.2-1.6-11.8-3.9-16.8c-2.2-5-5.3-9.1-9.1-12.5c-3.8-3.4-8.3-5.9-13.5-7.6
					c-5.2-1.7-10.9-2.3-17.1-2c-3.8,0.2-7.5,0.9-10.9,2.2c-3.4,1.2-6.5,2.9-9.4,5c-2.9,2.1-5.4,4.5-7.7,7.3c-2.3,2.8-4.2,5.8-5.7,9
					c-1.5,3.3-2.6,6.7-3.4,10.3c-0.7,3.6-1,7.3-0.8,11c0.2,3.8,0.9,7.4,2,10.9c0.5,1.4,1,2.8,1.6,4.1c9.7-1.8,19.4-3.6,29.2-5.4
					c-0.5-0.5-1-0.9-1.4-1.5c-1.1-1.4-2-3-2.6-4.8c-0.6-1.8-1-3.6-1-5.3c-0.1-1.9,0.1-3.7,0.6-5.4c0.5-1.7,1.3-3.2,2.4-4.6
					c1.1-1.3,2.4-2.4,3.9-3.2c1.5-0.8,3.3-1.3,5.3-1.4c2-0.1,3.7,0.2,5.3,1c1.6,0.8,2.9,1.8,4,3.1c1.1,1.3,2,2.8,2.6,4.5
					c0.6,1.7,1,3.5,1.1,5.3c0.1,1.9-0.1,3.7-0.6,5.5c-0.3,1.2-0.8,2.3-1.4,3.4c7.4-1.4,14.9-2.7,22.5-4c2.6-0.4,5.2-0.8,7.8-1.2
					C477.7,408.9,477.8,406.6,477.7,404.3z"/>
			</g>
			<g>
				<path class="st0" d="M447.3,416.3c-0.3,0.5-0.6,1-0.9,1.4c-1,1.4-2.3,2.5-3.9,3.4s-3.3,1.4-5.4,1.5c-2,0.1-3.8-0.3-5.4-1.1
					c-1-0.5-1.8-1.1-2.6-1.8c-9.8,1.8-19.5,3.7-29.2,5.4c0.9,1.9,1.8,3.8,3,5.6c1.9,3,4.1,5.6,6.7,8c2.6,2.4,5.4,4.4,8.6,6
					c3.1,1.6,6.5,2.8,10,3.6c3.5,0.8,7.2,1.1,11.1,0.9c4-0.2,7.7-0.9,11.2-2.1c3.5-1.2,6.7-2.9,9.6-4.9c2.9-2,5.5-4.4,7.8-7.2
					c2.3-2.8,4.2-5.8,5.7-9c1.5-3.3,2.6-6.7,3.4-10.4c0.3-1.5,0.5-3,0.6-4.5c-2.6,0.4-5.2,0.8-7.8,1.2
					C462.2,413.6,454.7,415,447.3,416.3z"/>
			</g>
			<g>
				<path class="st0" d="M483.8,448.4l28.9-1.5l0.3-38.7c-10,0.3-20,0.9-30.2,2.2L483.8,448.4z"/>
			</g>
			<g>
				<path class="st0" d="M566.9,410.3l0.1-57.3l-30.2,2.6l1.2,43.7l-24.6-45l-32,3.2l1.4,53.1c10.1-1.2,20.2-1.9,30.2-2.2l0.1-8.9
					l3.9,8.8C533.8,407.9,550.4,408.8,566.9,410.3z"/>
			</g>
			<g>
				<path class="st0" d="M517,408.2l16.4,36.8l33.4-4.8l0.1-29.9C550.4,408.8,533.8,407.9,517,408.2z"/>
			</g>
		</g>
		<g>
			<path class="st190" d="M153,425.2c0.1,2.9,0.3,5.9,0.4,8.8c0.5,9.7,0.9,19.5,1.4,29.2l29.9-1.5l-1.5-29.9
				c3.4-0.2,6.8-0.7,10.2-1.3c-7.9-0.9-15.9-1.9-23.9-3C164,426.6,158.5,425.9,153,425.2z"/>
			<path class="st190" d="M154.8,464.9c-0.9,0-1.7-0.7-1.7-1.7c-0.5-9.8-1-19.5-1.4-29.3l-0.4-8.8c0-0.5,0.2-1,0.6-1.4
				c0.4-0.4,0.9-0.5,1.4-0.4c2.4,0.3,4.7,0.7,7,1c3.2,0.4,6.3,0.9,9.4,1.3c7.8,1.1,15.8,2.1,23.9,3c0.9,0.1,1.5,0.8,1.5,1.7
				c0,0.9-0.6,1.6-1.4,1.8c-2.9,0.6-5.9,1-8.7,1.2l1.4,28.2c0,1-0.7,1.8-1.7,1.8L154.8,464.9C154.9,464.9,154.8,464.9,154.8,464.9z
				 M154.8,427.2l0.3,6.7c0.4,9.1,0.9,18.3,1.3,27.5l26.4-1.4l-1.4-28.1c0-0.4,0.1-0.7,0.3-1c-4.2-0.5-8.4-1.1-12.5-1.7
				c-3.1-0.5-6.2-0.9-9.4-1.3C158.1,427.6,156.5,427.4,154.8,427.2z"/>
		</g>
		<g>
			<path class="st191" d="M203.8,427.6c3.3-1.2,6.3-2.7,9.1-4.6c2.8-1.8,5.2-4,7.3-6.5c2-2.5,3.6-5.4,4.7-8.7
				c1.1-3.3,1.5-7,1.3-11.1c-0.2-3.8-0.9-7.2-2.2-10.2c-1.2-3-2.9-5.6-4.9-7.9c-2-2.3-4.3-4.2-7-5.8c-2.7-1.6-5.6-2.9-8.6-3.9
				c-3.1-1-6.3-1.7-9.6-2c-3.3-0.4-6.6-0.5-9.9-0.3c-5.8,0.3-11.4,1-16.9,2.1c-5.4,1.1-10.8,2.6-16.2,4.5c0,5.3,0.2,10.6,0.5,15.8
				c0.3,5.2,0.6,10.4,0.7,15.7c0.3,6.9,0.6,13.8,0.9,20.6c5.5,0.8,11.1,1.5,16.5,2.3c8,1.1,16,2.1,23.9,3c0.1,0,0.1,0,0.2,0
				C197.1,429.8,200.5,428.8,203.8,427.6z M186.4,411.8c-0.6,0-1.2,0.1-1.7,0.1c-0.6,0-1.1,0-1.7,0l-0.2-18.8
				c0.8-0.3,1.7-0.5,2.7-0.7c1-0.2,1.9-0.3,2.8-0.4c2.7-0.1,4.9,0.5,6.7,2c1.8,1.5,2.7,3.6,2.9,6.4c0.1,1.6-0.2,3.1-0.8,4.4
				c-0.6,1.3-1.4,2.5-2.5,3.5c-1.1,1-2.3,1.8-3.7,2.4C189.4,411.4,187.9,411.7,186.4,411.8z"/>
			<path class="st190" d="M193.5,432.2l-0.4,0c-8.1-0.9-16.2-1.9-24-3c-3.1-0.5-6.2-0.9-9.4-1.3c-2.3-0.3-4.7-0.6-7.1-1l-1.4-0.2
				l-0.1-1.4c-0.3-6.8-0.6-13.7-0.9-20.6c-0.2-5.2-0.4-10.4-0.7-15.6c-0.3-5.2-0.5-10.6-0.5-15.9l0-1.2l1.2-0.4
				c5.4-1.9,11-3.5,16.5-4.6c5.5-1.1,11.3-1.8,17.1-2.1c3.4-0.2,6.8-0.1,10.2,0.3c3.4,0.4,6.8,1.1,9.9,2.1c3.2,1,6.2,2.4,9,4.1
				c2.8,1.7,5.3,3.8,7.4,6.2c2.1,2.4,3.9,5.3,5.2,8.4c1.3,3.2,2.1,6.8,2.3,10.8c0.2,4.3-0.2,8.3-1.4,11.8c-1.1,3.5-2.8,6.6-5,9.2
				c-2.1,2.6-4.7,4.9-7.7,6.8c-2.9,1.9-6.1,3.5-9.5,4.7c-3.3,1.2-6.9,2.2-10.5,2.9L193.5,432.2z M154.7,423.6
				c1.9,0.3,3.7,0.5,5.6,0.8c3.2,0.4,6.3,0.9,9.4,1.3c7.7,1.1,15.7,2.1,23.6,3c3.4-0.7,6.7-1.6,9.8-2.7h0c3.1-1.2,6.1-2.6,8.8-4.4
				c2.7-1.7,5-3.8,6.9-6.1c1.9-2.3,3.4-5.1,4.4-8.1c1-3.1,1.4-6.6,1.2-10.5c-0.2-3.6-0.9-6.8-2-9.6c-1.2-2.8-2.7-5.3-4.6-7.5
				c-1.9-2.1-4.1-4-6.6-5.5c-2.5-1.5-5.3-2.8-8.3-3.7c-2.9-1-6.1-1.6-9.2-2c-3.2-0.4-6.5-0.4-9.6-0.3c-5.7,0.3-11.3,1-16.6,2.1
				c-4.9,1-9.9,2.3-14.8,4c0,4.9,0.2,9.7,0.5,14.5c0.3,5.2,0.6,10.5,0.7,15.7C154.1,410.9,154.4,417.3,154.7,423.6z M184.1,413.6
				c-0.4,0-0.9,0-1.3-0.1l-1.6-0.1l-0.2-21.6l1.3-0.4c0.9-0.3,1.9-0.5,2.9-0.7c1-0.2,2.1-0.4,3-0.4c3.1-0.2,5.8,0.6,7.9,2.4
				c2.2,1.8,3.3,4.4,3.5,7.6c0.1,1.9-0.2,3.7-0.9,5.2c-0.7,1.5-1.7,2.9-2.9,4.1c-1.2,1.2-2.6,2.1-4.2,2.8c-1.6,0.7-3.3,1-5,1.1
				l-1.7,0.1C184.5,413.6,184.3,413.6,184.1,413.6z M184.5,394.4l0.2,15.7l1.7-0.1c1.3-0.1,2.6-0.4,3.8-0.9c1.2-0.5,2.3-1.2,3.2-2.1
				c0.9-0.9,1.6-1.9,2.1-3c0.5-1.1,0.7-2.3,0.6-3.6c-0.1-2.3-0.9-4-2.2-5.1c-1.4-1.2-3.2-1.7-5.5-1.6c-0.8,0-1.6,0.2-2.5,0.3
				C185.3,394.2,184.9,394.3,184.5,394.4z"/>
		</g>
		<g>
			<path class="st190" d="M233.2,456.7l27-2.8l0.6-19c-9.6-0.2-19.1-0.5-28.7-1.1L233.2,456.7z"/>
			<path class="st190" d="M231.6,458.6l-1.4-26.7l1.9,0.1c9.5,0.6,19.1,1,28.6,1.1l1.8,0l-0.7,22.3L231.6,458.6z M233.9,435.7
				l1,19.1l23.6-2.5l0.5-15.7C250.7,436.5,242.2,436.2,233.9,435.7z"/>
		</g>
		<g>
			<path class="st191" d="M228.8,369.8l3.3,64.1c9.6,0.6,19.2,1,28.7,1.1l2-68.7L228.8,369.8z"/>
			<path class="st190" d="M262.5,436.7l-1.7,0c-9.6-0.2-19.3-0.5-28.8-1.1l-1.6-0.1l-3.4-67.3l37.7-3.9L262.5,436.7z M233.7,432.2
				c8.4,0.5,16.9,0.8,25.4,1l1.9-65l-30.4,3.2L233.7,432.2z"/>
		</g>
		<g>
			<path class="st191" d="M315.5,424.7l-15.9,0.8l0.2-9.4l19.2-1.6l0.4-20l-19.1,1l0.2-8.1l27.1-2.8c0.1-4,0.2-8,0.2-12
				c0-3.9,0-7.9,0.1-12l-59.1,3l2.1,71.3c18.5,0,37.1-0.8,55.9-2.5c0-2.8,0-5.6,0-8.4L315.5,424.7z"/>
			<path class="st190" d="M271.7,436.8c-0.3,0-0.6,0-0.9,0l-1.7,0l-2.2-74.7l62.7-3.2l0,1.9c-0.1,4-0.1,8-0.1,11.9c0,4-0.1,8-0.2,12
				l-0.1,1.5l-27.1,2.8l-0.1,4.7l19.1-1l-0.5,23.4l-19.2,1.6l-0.1,6l27.2-1.4l0,1.8c0,2.2,0,4.3,0,6.4l0,3.5l-1.6,0.1
				C308.8,435.9,290.2,436.8,271.7,436.8z M270.5,365.4l2,67.9c17.6,0,35.3-0.8,52.5-2.4l0-0.4c0-1.5,0-3,0-4.6l-27.2,1.4l0.2-12.8
				l19.2-1.6l0.3-16.5l-19.1,1l0.3-11.5l27.1-2.8c0.1-3.5,0.2-7,0.2-10.4c0-3.3,0-6.7,0.1-10.1L270.5,365.4z"/>
		</g>
		<g>
			<path class="st190" d="M270.8,435l0.6,21.3l55.2-4.1c0-4.7,0-9.3,0-14c0-1.9,0-3.8,0-5.7C307.9,434.3,289.3,435.1,270.8,435z"/>
			<path class="st190" d="M269.7,458.2l-0.7-24.9l1.8,0c18.8,0.1,37.5-0.8,55.7-2.5l1.9-0.2l0,7.6c0,4.6,0,9.3,0,14l0,1.6
				L269.7,458.2z M272.6,436.8l0.5,17.6l51.8-3.9c0-4.2,0-8.3,0-12.4l0-3.8C307.8,436,290.2,436.8,272.6,436.8z"/>
		</g>
		<g>
			<path class="st190" d="M333.6,431.8c0.2,6.7,0.4,13.5,0.6,20.2l27.6-1.4l-0.2-22c-6.6,0.9-13.2,1.6-19.9,2.3
				C339,431.3,336.3,431.5,333.6,431.8z"/>
			<path class="st190" d="M332.5,453.9l-0.1-1.8c-0.2-6.8-0.4-13.5-0.6-20.2l-0.1-1.6l1.8-0.2c2.6-0.3,5.2-0.6,7.9-0.9
				c6.3-0.6,12.8-1.4,19.9-2.3l2-0.3l0.2,25.6L332.5,453.9z M335.4,433.4c0.2,5.6,0.3,11.2,0.5,16.8L360,449l-0.1-18.4
				c-6.4,0.8-12.3,1.5-18,2C339.7,432.9,337.6,433.2,335.4,433.4z"/>
		</g>
		<g>
			<path class="st190" d="M380.8,450.1l28.6-7.1L397,423.3c-8.5,1.5-17.1,2.8-25.7,4.1L380.8,450.1z"/>
			<path class="st190" d="M379.8,452.1l-11-26.2l2.2-0.3c8.1-1.2,16.5-2.5,25.7-4.1l1.1-0.2l14.3,22.7L379.8,452.1z M373.7,428.7
				l8.1,19.3l24.8-6.2l-10.5-16.6C388.2,426.5,380.8,427.7,373.7,428.7z"/>
		</g>
		<g>
			<path class="st191" d="M399.5,410.6c1.9-2,3.4-4.2,4.5-6.5c1.1-2.3,1.9-4.9,2.3-7.6c0.4-2.7,0.6-5.8,0.4-9.1
				c-0.3-5.3-1.6-10-3.9-13.9c-2.3-3.9-5.3-7.1-8.9-9.6c-3.6-2.5-7.8-4.3-12.4-5.4c-4.6-1.1-9.4-1.5-14.2-1.3
				c-3.2,0.2-6.2,0.4-9.3,0.7c-3,0.3-6,0.7-8.9,1.3c-2.9,0.6-5.8,1.3-8.7,2.1c-2.9,0.9-5.8,1.9-8.7,3.2c0,4.9,0.1,9.8,0.2,14.6
				c0.2,4.8,0.3,9.7,0.5,14.6c0.2,9.8,0.5,19.5,0.8,29.2c0.1,3,0.2,5.9,0.3,8.9c2.7-0.3,5.4-0.6,8.1-0.9c6.7-0.7,13.3-1.4,19.9-2.3
				l0-4.7l7.9-0.7l1.7,4.1c8.6-1.2,17.2-2.6,25.7-4.1l-4.3-6.7C395.4,414.6,397.7,412.7,399.5,410.6z M377,396.5
				c-0.9,1.6-2.1,2.9-3.5,4c-1.5,1.1-3.1,1.9-5,2.4c-1.9,0.6-3.7,0.9-5.6,1l-1.5,0.1l-0.2-23.9c0.8-0.3,1.5-0.5,2.3-0.6
				c0.8-0.1,1.6-0.2,2.5-0.3c1.9-0.1,3.6,0.1,5.1,0.7c1.5,0.5,2.7,1.3,3.7,2.4c1,1,1.8,2.3,2.4,3.8c0.6,1.5,0.9,3.1,1,4.9
				C378.3,393,377.9,394.9,377,396.5z"/>
			<path class="st190" d="M331.9,433.8l-0.3-10.8c-0.3-9.6-0.6-19.4-0.8-29.2l-0.5-14.6c-0.2-4.8-0.2-9.8-0.2-14.7l0-1.1l1.1-0.5
				c3-1.3,6-2.4,8.9-3.3c2.9-0.9,5.9-1.6,8.8-2.2c3-0.6,6-1,9-1.3c3-0.3,6.1-0.5,9.3-0.7c5-0.3,10,0.2,14.7,1.3
				c4.8,1.2,9.2,3.1,13,5.7c3.8,2.6,7,6.1,9.5,10.2c2.5,4.1,3.8,9.1,4.1,14.7c0.2,3.4,0,6.6-0.4,9.5c-0.5,2.9-1.3,5.6-2.5,8.1
				c-1.2,2.5-2.8,4.8-4.8,7c-1.6,1.8-3.6,3.5-5.8,5.1l4.8,7.6l-2.6,0.4c-9.2,1.6-17.6,2.9-25.8,4.1l-1.3,0.2l-1.8-4.2l-5.1,0.4
				l0,4.7l-1.5,0.2c-7.2,0.9-13.7,1.7-20,2.3c-2.6,0.3-5.2,0.6-7.9,0.9L331.9,433.8z M333.5,365.6c0,4.5,0.1,9,0.2,13.4l0.5,14.6
				c0.2,9.7,0.5,19.5,0.8,29.2l0.2,7c2.1-0.2,4.1-0.4,6.2-0.7c5.8-0.6,11.8-1.3,18.4-2.1l0-4.8l10.8-0.9l1.7,4
				c6.9-1,14.1-2.1,21.8-3.4l-3.7-5.9l1.4-1c2.6-1.8,4.8-3.7,6.6-5.6c1.7-1.9,3.2-3.9,4.2-6.1c1-2.2,1.8-4.6,2.2-7.1
				c0.4-2.6,0.5-5.6,0.4-8.8c-0.3-5-1.5-9.4-3.7-13.1c-2.2-3.7-5-6.7-8.4-9.1c-3.4-2.4-7.4-4.1-11.8-5.2c-4.4-1.1-9.1-1.5-13.7-1.2
				c-3.1,0.2-6.2,0.4-9.2,0.7c-2.9,0.3-5.9,0.7-8.7,1.3c-2.8,0.5-5.7,1.3-8.5,2.1C338.5,363.7,336,364.6,333.5,365.6z M359.6,405.8
				l-0.2-27l1.2-0.4c0.8-0.3,1.7-0.5,2.6-0.7c0.9-0.2,1.8-0.3,2.7-0.3c2.1-0.1,4.1,0.2,5.8,0.8c1.7,0.6,3.2,1.6,4.4,2.8
				c1.2,1.2,2.1,2.7,2.8,4.4c0.6,1.6,1,3.5,1.1,5.4c0.1,2.5-0.3,4.7-1.4,6.5c-1,1.8-2.4,3.3-4,4.5c-1.6,1.2-3.5,2.1-5.5,2.7
				c-2,0.6-4,1-6,1.1L359.6,405.8z M362.9,381.4l0.2,20.8c1.6-0.1,3.2-0.4,4.9-0.9c1.7-0.5,3.2-1.2,4.5-2.2c1.3-0.9,2.3-2,3-3.4
				c0.7-1.3,1-2.8,0.9-4.7c-0.1-1.6-0.4-3.1-0.9-4.4c-0.5-1.2-1.2-2.3-2-3.2c-0.8-0.9-1.9-1.5-3.1-2c-1.2-0.5-2.7-0.7-4.4-0.6
				c-0.8,0-1.5,0.1-2.3,0.3C363.5,381.2,363.2,381.3,362.9,381.4z"/>
		</g>
		<g>
			<path class="st191" d="M490.5,399.7c-0.3-6.2-1.6-11.8-3.9-16.8c-2.2-5-5.3-9.1-9.1-12.5c-3.8-3.4-8.3-5.9-13.5-7.6
				c-5.2-1.7-10.9-2.3-17.1-2c-3.8,0.2-7.5,0.9-10.9,2.2c-3.4,1.2-6.5,2.9-9.4,5c-2.9,2.1-5.4,4.5-7.7,7.3c-2.3,2.8-4.2,5.8-5.7,9
				c-1.5,3.3-2.6,6.7-3.4,10.3c-0.7,3.6-1,7.3-0.8,11c0.2,3.8,0.9,7.4,2,10.9c0.5,1.4,1,2.8,1.6,4.1c9.7-1.8,19.4-3.6,29.2-5.4
				c-0.5-0.5-1-0.9-1.4-1.5c-1.1-1.4-2-3-2.6-4.8c-0.6-1.8-1-3.6-1-5.3c-0.1-1.9,0.1-3.7,0.6-5.4c0.5-1.7,1.3-3.2,2.4-4.6
				c1.1-1.3,2.4-2.4,3.9-3.2c1.5-0.8,3.3-1.3,5.3-1.4c2-0.1,3.7,0.2,5.3,1c1.6,0.8,2.9,1.8,4,3.1c1.1,1.3,2,2.8,2.6,4.5
				c0.6,1.7,1,3.5,1.1,5.3c0.1,1.9-0.1,3.7-0.6,5.5c-0.3,1.2-0.8,2.3-1.4,3.4c7.4-1.4,14.9-2.7,22.5-4c2.6-0.4,5.2-0.8,7.8-1.2
				C490.5,404.2,490.6,402,490.5,399.7z"/>
			<path class="st190" d="M411.7,422.5l-0.6-1.3c-0.7-1.5-1.2-2.9-1.7-4.2c-1.2-3.6-1.9-7.4-2.1-11.3c-0.2-3.8,0.1-7.7,0.8-11.4
				c0.7-3.7,1.9-7.3,3.5-10.7c1.6-3.4,3.6-6.5,5.9-9.4c2.3-2.9,5-5.4,8-7.6c3-2.2,6.3-3.9,9.8-5.2c3.6-1.3,7.4-2.1,11.4-2.3
				c6.4-0.3,12.3,0.4,17.7,2.1c5.4,1.7,10.2,4.4,14.1,7.9c4,3.5,7.2,7.9,9.5,13.1c2.3,5.1,3.7,11,4,17.4v0c0.1,2.3,0.1,4.6-0.2,7
				L492,408l-1.4,0.2c-3,0.4-5.4,0.8-7.8,1.2c-6.6,1.1-13.7,2.4-22.4,4l-3.7,0.7l1.9-3.3c0.5-0.9,1-1.9,1.3-3
				c0.5-1.6,0.6-3.2,0.6-4.9c-0.1-1.7-0.4-3.3-1-4.8c-0.6-1.5-1.3-2.8-2.3-4c-0.9-1.1-2.1-2-3.4-2.6c-1.3-0.6-2.8-0.9-4.4-0.8
				c-1.7,0.1-3.3,0.5-4.6,1.2c-1.3,0.7-2.5,1.6-3.4,2.7c-0.9,1.1-1.6,2.5-2.1,4c-0.5,1.5-0.6,3.1-0.6,4.8c0.1,1.6,0.4,3.3,1,4.9
				c0.5,1.6,1.3,3,2.3,4.2c0.3,0.4,0.7,0.8,1.2,1.3l2.6,2.4l-5.8,1.1c-8.8,1.7-17.9,3.4-26.8,5L411.7,422.5z M449.9,362.4
				c-0.9,0-1.9,0-2.8,0.1c-3.7,0.2-7.1,0.9-10.4,2.1c-3.2,1.2-6.3,2.8-9,4.8c-2.7,2-5.2,4.3-7.4,7c-2.2,2.6-4,5.6-5.5,8.7
				c-1.5,3.1-2.5,6.4-3.2,9.9c-0.7,3.5-0.9,7-0.8,10.6c0.2,3.6,0.8,7.1,1.9,10.4c0.3,0.9,0.6,1.7,1,2.7c8.3-1.5,16.7-3.1,24.8-4.6
				c-1-1.4-1.7-2.9-2.3-4.5c-0.7-1.9-1-3.9-1.1-5.8c-0.1-2.1,0.1-4.1,0.7-6c0.6-1.9,1.5-3.7,2.7-5.2c1.2-1.5,2.7-2.7,4.5-3.6
				c1.8-0.9,3.8-1.4,6.1-1.6c2.3-0.1,4.3,0.3,6.1,1.2c1.8,0.9,3.3,2,4.6,3.5c1.2,1.4,2.2,3.1,2.9,5c0.7,1.9,1.1,3.8,1.2,5.8
				c0.1,2.1-0.1,4.1-0.7,6.1c-0.1,0.2-0.1,0.4-0.2,0.6c7.3-1.3,13.5-2.4,19.2-3.4c2-0.3,4.1-0.7,6.5-1c0.1-1.8,0.1-3.5,0-5.2
				c-0.3-6-1.6-11.4-3.7-16.2c-2.1-4.7-5-8.7-8.6-11.9c-3.6-3.2-7.9-5.6-12.9-7.2C459.3,363.1,454.8,362.4,449.9,362.4z"/>
		</g>
		<g>
			<path class="st190" d="M460.1,411.7c-0.3,0.5-0.6,1-0.9,1.4c-1,1.4-2.3,2.5-3.9,3.4s-3.3,1.4-5.4,1.5c-2,0.1-3.8-0.3-5.4-1.1
				c-1-0.5-1.8-1.1-2.6-1.8c-9.8,1.8-19.5,3.7-29.2,5.4c0.9,1.9,1.8,3.8,3,5.6c1.9,3,4.1,5.6,6.7,8c2.6,2.4,5.4,4.4,8.6,6
				c3.1,1.6,6.5,2.8,10,3.6c3.5,0.8,7.2,1.1,11.1,0.9c4-0.2,7.7-0.9,11.2-2.1c3.5-1.2,6.7-2.9,9.6-4.9c2.9-2,5.5-4.4,7.8-7.2
				c2.3-2.8,4.2-5.8,5.7-9c1.5-3.3,2.6-6.7,3.4-10.4c0.3-1.5,0.5-3,0.6-4.5c-2.6,0.4-5.2,0.8-7.8,1.2
				C475,408.9,467.5,410.3,460.1,411.7z"/>
			<path class="st190" d="M449.8,446.4c-3.2,0-6.3-0.3-9.2-1c-3.7-0.8-7.2-2.1-10.4-3.8c-3.2-1.7-6.3-3.8-8.9-6.3
				c-2.7-2.5-5-5.3-7-8.4c-1.1-1.8-2.2-3.7-3.1-5.8l-0.9-2l2.2-0.4c8.9-1.6,18-3.3,26.8-5l3.3-0.6l0.6,0.6c0.7,0.7,1.4,1.2,2.2,1.6
				c1.3,0.7,2.8,1,4.5,0.9c1.7-0.1,3.3-0.5,4.6-1.2c1.3-0.7,2.5-1.7,3.4-2.9c0.3-0.3,0.5-0.8,0.8-1.2l0.4-0.7l0.8-0.1
				c8.7-1.6,15.9-2.9,22.5-4c2.4-0.4,4.9-0.8,7.9-1.2l2.2-0.3l-0.2,2.2c-0.2,1.7-0.4,3.3-0.7,4.7c-0.7,3.8-1.9,7.4-3.5,10.8
				c-1.6,3.4-3.6,6.5-5.9,9.4c-2.4,2.9-5.1,5.4-8.1,7.5c-3,2.1-6.4,3.8-10,5.1c-3.6,1.3-7.6,2-11.7,2.2
				C451.3,446.4,450.6,446.4,449.8,446.4z M415.3,421.8c0.6,1.2,1.2,2.3,1.9,3.3c1.8,2.8,4,5.4,6.4,7.7c2.5,2.3,5.2,4.2,8.2,5.7
				c3,1.5,6.2,2.7,9.6,3.5c3.4,0.8,6.9,1.1,10.6,0.9c3.8-0.2,7.4-0.9,10.7-2.1c3.3-1.2,6.4-2.7,9.2-4.7c2.8-1.9,5.3-4.2,7.5-6.9
				c2.2-2.6,4-5.5,5.5-8.6c1.5-3.1,2.5-6.5,3.2-10c0.1-0.7,0.3-1.4,0.4-2.2c-2,0.3-3.8,0.6-5.5,0.9c-6.4,1.1-13.3,2.3-21.7,3.9
				c-0.2,0.3-0.4,0.6-0.6,0.9c-1.2,1.6-2.7,2.9-4.5,3.9c-1.8,1-3.9,1.6-6.1,1.7c-2.3,0.1-4.4-0.3-6.3-1.3c-0.8-0.4-1.6-0.9-2.3-1.5
				l-1.6,0.3C431.8,418.7,423.5,420.3,415.3,421.8z"/>
		</g>
		<g>
			<path class="st190" d="M496.6,443.7l28.9-1.5l0.3-38.7c-10,0.3-20,0.9-30.2,2.2L496.6,443.7z"/>
			<path class="st190" d="M494.9,445.6l-1.1-41.3l1.6-0.2c9.7-1.2,19.9-1.9,30.3-2.2l1.8,0l-0.3,42.1L494.9,445.6z M497.4,407.3
				l0.9,34.6l25.4-1.3l0.3-35.2C514.8,405.7,506.1,406.3,497.4,407.3z"/>
		</g>
		<g>
			<path class="st191" d="M579.7,405.6l0.1-57.3l-30.2,2.6l1.2,43.7l-24.6-45l-32,3.2l1.4,53.1c10.1-1.2,20.2-1.9,30.2-2.2l0.1-8.9
				l3.9,8.8C546.6,403.2,563.2,404.1,579.7,405.6z"/>
			<path class="st190" d="M493.9,407.7l-1.5-56.6l34.8-3.5l21.6,39.7l-1.1-38l33.8-2.9l-0.1,61.1l-1.9-0.2
				c-18.8-1.7-34.6-2.3-49.7-2.1l-1.2,0l-1.1-2.5l0,2.6l-1.7,0c-10.5,0.3-20.3,1-30,2.2L493.9,407.7z M496,354.3l1.3,49.5
				c8.6-1,17.6-1.6,26.7-1.9l0.1-15.3l6.7,15.1c14.4-0.2,29.4,0.5,47,2l0.1-53.5l-26.7,2.3l1.4,49.3l-27.5-50.4L496,354.3z"/>
		</g>
		<g>
			<path class="st190" d="M529.8,403.5l16.4,36.8l33.4-4.8l0.1-29.9C563.2,404.1,546.6,403.2,529.8,403.5z"/>
			<path class="st190" d="M545.1,442.2l-18-40.4l2.6,0c15.2-0.2,31.2,0.4,50.1,2.1l1.6,0.1l-0.1,33L545.1,442.2z M532.5,405.2
				l14.8,33.2l30.6-4.4l0-26.8C560.9,405.7,546.4,405.1,532.5,405.2z"/>
		</g>
	</g>
	<g>
		<g>
			<path class="st0" d="M172.2,365.6c0.4,2.5,0.2,4.8-0.6,6.7c-0.8,1.9-2,3.6-3.5,5c-1.6,1.4-3.5,2.6-5.6,3.5
				c-2.2,0.9-4.5,1.6-6.8,2.1c-1.5,0.2-3,0.4-4.4,0.5c-0.6,0.1-1.2,0.1-1.8,0.2c-0.6,0.1-1.2,0.2-1.8,0.2c-0.6,0.1-1.1,0.1-1.7,0.2
				c-0.5,0.1-1,0.2-1.3,0.2c-1.5,0.3-3,0.6-4.6,0.8c-1.6,0.3-3.2,0.6-4.7,1c0.8-1.6,1.4-3.5,1.7-5.7c0.3-2.3,0.4-4.7,0.4-7.2
				c0-2.6-0.2-5.2-0.4-7.8c-0.3-2.7-0.6-5.1-1-7.4c-0.2-1-0.4-2.2-0.6-3.6c-0.3-1.4-0.6-2.9-0.9-4.4c-0.3-1.6-0.7-3.1-1.1-4.7
				c-0.4-1.6-0.9-3.1-1.4-4.4c-0.5-1.4-1-2.5-1.6-3.5c-0.6-1-1.2-1.7-1.8-2.1c1.7,0,3.3-0.1,4.9-0.3c1.6-0.2,2.9-0.3,4-0.5
				c1-0.2,1.8-0.3,2.6-0.5c0.7-0.2,1.5-0.3,2.2-0.5c0.7-0.2,1.5-0.3,2.2-0.5c0.8-0.2,1.6-0.3,2.6-0.5c1.5-0.2,3-0.4,4.6-0.5
				c1.5-0.1,3-0.1,4.5,0.1c1.4,0.1,2.8,0.4,4.1,0.9c1.3,0.4,2.5,1.1,3.5,1.9c1,0.9,1.9,2,2.7,3.3c0.7,1.3,1.3,3,1.6,4.9
				c0.2,1,0.2,2.1,0.1,3.1c-0.1,1.1-0.4,2.1-0.8,3.2c-0.4,1.1-1,2.1-1.8,3.2c-0.8,1-1.8,2.1-3.1,3.1c3.1,0.7,5.5,2,7,3.6
				C170.8,361,171.8,363.1,172.2,365.6z M149.4,353.5c0.4-0.4,0.9-1,1.4-1.6c0.5-0.7,1-1.4,1.4-2.2c0.4-0.8,0.8-1.6,1.1-2.4
				c0.3-0.8,0.3-1.6,0.2-2.2c-0.1-0.7-0.4-1.3-0.9-1.7c-0.5-0.4-1-0.5-1.5-0.5c-0.7,0.1-1.3,0.5-1.6,1.3c-0.3,0.7-0.5,1.6-0.6,2.5
				c-0.1,0.9-0.1,1.9,0,2.8c0.1,0.9,0.1,1.7,0.2,2.2c0,0.3,0.1,0.6,0.1,0.9C149.3,352.8,149.3,353.1,149.4,353.5z M156.8,369.7
				c-0.1-0.8-0.4-1.6-0.8-2.4s-0.8-1.6-1.4-2.3c-0.5-0.7-1.2-1.4-1.8-2.1c-0.7-0.7-1.3-1.3-2-1.9c-0.2,1.1-0.2,2.1-0.2,3.1
				c0.1,1,0.1,1.9,0.3,2.7c0.2,1.2,0.4,2.2,0.7,2.9c0.3,0.8,0.6,1.4,1,1.8c0.4,0.4,0.7,0.7,1.2,0.9c0.4,0.1,0.9,0.2,1.3,0.1
				c0.6-0.1,1-0.4,1.4-0.9C156.8,371.2,156.9,370.5,156.8,369.7z"/>
			<path class="st0" d="M194.1,336.9c0,1.3,0.1,2.5,0.2,3.7c0.1,1.1,0.3,2.3,0.5,3.5c0.2,1.2,0.4,2.3,0.6,3.4
				c0.2,1.1,0.5,2.2,0.9,3.2c-0.4-0.1-0.8-0.1-1.2,0c-0.4,0-0.8,0.1-1.3,0.1c-1.4,0.2-2.7,0.6-4.1,1.2c0.4,2.1,0.9,3.9,1.5,5.2
				c0.6,1.4,1.2,2.5,2,3.3c0.7,0.8,1.5,1.3,2.4,1.6c0.8,0.3,1.7,0.3,2.7,0.2c1.4-0.2,2.8-1,4-2.2c1.2-1.3,2.2-3,2.9-5.1l4.8,18.8
				c-0.8-0.1-1.8-0.1-2.9,0c-1.1,0-2.2,0.1-3.4,0.2c-1.2,0.1-2.4,0.3-3.5,0.4c-1.2,0.1-2.2,0.3-3.1,0.4c-0.9,0.1-1.7,0.2-2.3,0.3
				c-0.6,0.1-0.9,0.1-1,0.2c-1.4,0.3-3,0.6-4.6,0.9c-1.4,0.3-3,0.8-4.7,1.3c-1.8,0.5-3.6,1.1-5.6,1.8c0.2-2.7,0.3-5.9,0.2-9.4
				c-0.1-3.6-0.4-7.3-0.8-11.2c-1,0.7-1.9,1.4-2.9,2.2c-0.9,0.8-1.8,1.6-2.7,2.5c0-0.4,0.1-0.8,0-1.3c0-0.5,0-1-0.1-1.5
				c0-0.5-0.1-1-0.2-1.5c-0.1-0.5-0.1-0.9-0.2-1.2c-0.2-1.3-0.5-2.6-0.8-3.9c-0.3-1.3-0.6-2.5-0.9-3.7c0.2,0,0.4,0,0.6,0
				c0.2,0,0.4-0.1,0.7-0.1c1.5-0.2,3.2-0.7,4.9-1.4c-0.4-2-0.7-3.9-1.1-5.7c-0.4-1.9-0.8-3.7-1.2-5.4c-0.4-1.7-0.9-3.3-1.4-4.8
				c-0.5-1.5-1-2.9-1.5-4.1c2.4,0.1,4.6,0,6.6-0.2c2-0.2,3.7-0.4,5.2-0.6c0.9-0.1,1.7-0.3,2.5-0.4c0.7-0.1,1.3-0.3,1.8-0.4
				c0.6-0.2,1.1-0.3,1.5-0.5c-0.4,2.3-0.6,4.7-0.7,7.4c-0.1,2.7-0.1,5.4,0.1,8.1c1.1-0.8,2.1-1.7,3-2.5
				C192.6,338.7,193.5,337.8,194.1,336.9z"/>
			<path class="st0" d="M252,367.1c-1.4,0-2.8,0.1-4.1,0.3s-2.7,0.3-4,0.5c-3.6,0.6-7.3,1.5-11,2.8c0.1-0.6,0.1-1.1,0.2-1.5
				c0.1-0.4,0.2-0.9,0.2-1.5c0.1-0.5,0.1-1.1,0.1-1.8c0-0.7-0.1-1.6-0.3-2.7c-0.2-1.1-0.4-2.1-0.7-3.1c-0.3-1-0.7-1.8-1.1-2.5
				c-0.4-0.7-0.9-1.3-1.5-1.6c-0.5-0.4-1.1-0.5-1.7-0.4c-0.7,0.1-1.2,0.4-1.6,0.9c-0.4,0.5-0.7,1.1-0.9,1.9
				c-0.2,0.8-0.3,1.6-0.2,2.5c0,0.9,0.1,1.9,0.3,2.9c0.2,1,0.4,1.9,0.6,2.6c0.2,0.7,0.5,1.3,0.7,1.9c0.3,0.5,0.5,1,0.7,1.4
				c0.2,0.4,0.4,0.8,0.5,1.2c-1.6,0.1-3.2,0.2-4.7,0.3c-1.5,0.1-3,0.3-4.5,0.6c-1.5,0.2-3,0.5-4.5,0.9c-1.5,0.3-3,0.7-4.6,1.2
				c0.8-4.3,1.4-8.6,1.8-12.8c0.4-4.2,0.7-8.4,0.8-12.6c0.1-4.2,0.1-8.4-0.1-12.6c-0.2-4.2-0.5-8.6-1-13c1.7,0,3.6-0.2,5.6-0.4
				c2-0.2,4.1-0.5,6.2-0.8c1.8-0.3,3.5-0.6,5.2-1c1.7-0.4,3.2-0.8,4.6-1.3c0.8,4.3,1.9,8.5,3.3,12.6c1.3,4.1,2.8,8.2,4.5,12.1
				c1.6,4,3.4,7.9,5.3,11.7C248,359.5,249.9,363.3,252,367.1z M228.7,343.6c-0.1-0.4-0.4-1-0.7-1.8c-0.3-0.7-0.8-1.6-1.4-2.7
				c-0.6-1.1-1.4-2.6-2.5-4.3c0,1.2,0,2.3-0.1,3.3c-0.1,1-0.2,1.8-0.3,2.6c-0.1,0.8-0.2,1.5-0.2,2.1c-0.1,0.6,0,1.2,0.1,1.8
				c0.2,1.1,0.6,2,1.2,2.5c0.6,0.5,1.3,0.8,1.9,0.7c0.7-0.1,1.2-0.5,1.6-1.3C228.7,345.5,228.8,344.6,228.7,343.6z"/>
			<path class="st0" d="M279.7,311.2c-0.2,1.4-0.5,3.1-1,5c-0.5,2-1.1,4.1-1.8,6.4c-0.7,2.3-1.4,4.8-2.2,7.4
				c-0.8,2.6-1.6,5.2-2.3,7.9c-0.7,2.7-1.4,5.3-2,7.9c-0.6,2.6-1.1,5.1-1.4,7.5c1.4-0.5,2.8-1.1,4.1-1.7c1.4-0.6,2.7-1.3,3.9-2.1
				c1.3-0.8,2.5-1.6,3.7-2.6c1.2-1,2.3-2.1,3.3-3.4c0.1,1.2,0.1,2.4,0.2,3.6c0.1,1.2,0.3,2.4,0.4,3.5c0.3,1.9,0.7,3.8,1.2,5.6
				c0.5,1.8,1.1,3.7,1.8,5.4c-2.9,0-5.9,0.2-9,0.5c-3.1,0.3-6.2,0.7-9.3,1.2c-3.2,0.5-6.3,1.1-9.4,1.8c-3.1,0.7-6.1,1.5-9,2.4
				c1.8-7.5,3.7-14.6,5.9-21.5c2.1-6.9,4.5-13.5,7.1-19.8c-2.8,0.6-5.6,1.6-8.4,2.9c-2.8,1.4-5.4,3.1-8,5c0-1.3-0.1-2.6-0.2-3.8
				c-0.1-1.2-0.2-2.4-0.4-3.6c-0.3-1.7-0.6-3.3-1.1-4.9c-0.4-1.6-1-3.1-1.7-4.6c2.5-0.1,5.1-0.3,7.7-0.6c2.6-0.3,5.3-0.6,8-1
				c3.4-0.5,6.8-1.2,10.2-2C273.3,313,276.6,312.1,279.7,311.2z"/>
			<path class="st0" d="M322.3,356.1c-1.2,0-2.5,0-3.7,0c-1.3,0.1-2.6,0.2-4,0.3c-1.4,0.2-2.9,0.3-4.4,0.6c-1.6,0.2-3.3,0.5-5.1,0.8
				c-0.9,0.1-1.9,0.3-3.1,0.5c-1.2,0.2-2.5,0.5-3.8,0.8c-1.4,0.3-2.8,0.7-4.2,1.1c-1.4,0.4-2.8,0.8-4.2,1.3c0.3-1.1,0.6-2.5,0.7-4.1
				c0.1-1.6,0.2-3.3,0.1-5.1c0-1.8-0.1-3.6-0.3-5.4c-0.2-1.8-0.3-3.6-0.5-5.1c-0.2-1.6-0.4-2.9-0.5-4.1c-0.2-1.2-0.3-1.9-0.4-2.4
				c0-0.1-0.1-0.4-0.2-1.1c-0.1-0.6-0.3-1.4-0.4-2.4s-0.4-2.1-0.6-3.3c-0.2-1.3-0.5-2.6-0.8-3.9c-0.3-1.4-0.6-2.7-1-4.1
				c-0.3-1.4-0.7-2.7-1.1-3.9c-0.4-1.2-0.7-2.3-1.1-3.3c-0.4-1-0.8-1.7-1.1-2.3c2.3,0,4.5-0.1,6.7-0.3c2.2-0.2,4.3-0.5,6.3-0.8
				c2.5-0.4,4.8-0.8,6.9-1.3c2.1-0.5,4-0.9,5.6-1.4c1.9-0.5,3.5-1,5-1.5l2.5,16c-1.5-1-2.9-1.8-4.2-2.2c-1.3-0.5-2.5-0.8-3.4-1
				c-1.1-0.2-2.2-0.2-3.2-0.1c-1.1,0.2-2,0.5-2.7,0.9c-0.7,0.4-1.2,0.9-1.5,1.4c-0.3,0.5-0.5,1.1-0.6,1.6c0,0.6,0,1.2,0.1,1.7
				c0.1,0.6,0.3,1.2,0.5,1.7c0.3,0.6,0.6,1.1,1.1,1.5c0.4,0.4,1,0.7,1.6,1c0.6,0.2,1.3,0.3,2.1,0.1c0.7-0.1,1.2-0.4,1.7-0.7
				c0.5-0.4,0.9-0.8,1.2-1.3c0.4-0.5,0.7-1.1,1-1.7l2.2,13.9c-0.5-0.8-1-1.4-1.6-1.8c-0.6-0.4-1.1-0.7-1.6-0.9
				c-0.5-0.2-0.9-0.2-1.3-0.2c-0.4,0-0.6,0-0.8,0c-1.5,0.2-2.5,0.9-3.1,1.9c-0.6,1-0.8,2.3-0.5,3.7c0.2,1,0.4,1.9,0.8,2.6
				c0.4,0.7,0.8,1.2,1.2,1.6c0.5,0.4,1,0.6,1.6,0.8c0.6,0.1,1.1,0.1,1.7,0c0.9-0.1,1.9-0.5,2.8-1.1c1-0.6,1.9-1.3,2.8-2.1
				c0.9-0.8,1.6-1.8,2.3-2.8c0.7-1,1.2-2,1.5-3L322.3,356.1z"/>
			<path class="st0" d="M344.6,351.9c-0.4,0-1,0.1-1.6,0.1c-0.5,0-1.1,0.1-1.8,0.2c-0.7,0.1-1.5,0.2-2.4,0.3
				c-1.8,0.3-3.8,0.7-6.2,1.2c-2.4,0.5-4.9,1.3-7.7,2.2c0.3-1.1,0.6-2.5,0.7-4.1c0.1-1.6,0.2-3.4,0.1-5.2c0-1.8-0.1-3.7-0.3-5.5
				c-0.2-1.9-0.3-3.6-0.5-5.2c-0.2-1.6-0.4-3-0.5-4.1c-0.2-1.2-0.3-2-0.4-2.4c0-0.1-0.1-0.4-0.2-1.1c-0.1-0.6-0.3-1.4-0.4-2.4
				c-0.2-1-0.4-2.1-0.6-3.3c-0.2-1.3-0.5-2.6-0.8-3.9s-0.6-2.7-1-4.1c-0.3-1.4-0.7-2.7-1.1-3.9c-0.4-1.2-0.7-2.3-1.1-3.2
				c-0.4-1-0.8-1.7-1.1-2.2c2.4,0,4.5,0,6.4-0.2c1.9-0.2,3.6-0.4,5.1-0.6c1-0.2,1.9-0.3,2.7-0.5c0.8-0.2,1.4-0.3,1.9-0.4
				c0.6-0.2,1.1-0.3,1.6-0.5c1.7,4.7,3.6,9,5.5,12.9c1.9,3.9,3.9,7.5,6,10.8l-0.2-1.4c-0.7-3.7-1.3-7.1-2-10.3
				c-0.3-1.4-0.6-2.7-1-4.1c-0.3-1.4-0.7-2.7-1-3.9c-0.4-1.2-0.7-2.3-1.1-3.2c-0.4-1-0.8-1.7-1.1-2.2c2.3,0.1,4.5,0,6.4-0.2
				c1.9-0.2,3.7-0.4,5.1-0.6c1-0.2,1.9-0.3,2.7-0.5c0.8-0.2,1.4-0.3,1.9-0.4c0.6-0.2,1.1-0.3,1.6-0.5c-0.1,1.3-0.1,2.8,0,4.4
				c0,1.6,0.1,3.3,0.2,5.1c0.1,1.8,0.3,3.7,0.5,5.7c0.2,2,0.5,4,0.8,6.1c0.4,2.3,0.8,4.7,1.3,7.1c0.5,2.4,1.1,4.8,1.7,7.2
				c0.6,2.4,1.3,4.7,2.1,6.9c0.8,2.2,1.6,4.4,2.5,6.4c-0.4,0-0.9,0.1-1.5,0.1c-0.5,0-1.1,0.1-1.8,0.2c-0.7,0.1-1.5,0.2-2.3,0.3
				c-1.6,0.3-3.5,0.6-5.6,1.1c-2.1,0.5-4.4,1.2-6.8,2c-0.4-2.3-0.9-4.6-1.7-6.8c-0.7-2.2-1.6-4.3-2.6-6.4c-1-2.1-2.2-4.1-3.5-6
				c-1.3-1.9-2.7-3.8-4.2-5.7c0.4,2.1,0.8,4.3,1.3,6.4c0.5,2.2,1,4.3,1.6,6.4c0.6,2.1,1.3,4.1,2,6.1
				C343,348.1,343.8,350,344.6,351.9z"/>
		</g>
		<path class="st218" d="M166.1,360.1c0.4,2.5,0.2,4.8-0.6,6.7c-0.8,1.9-2,3.6-3.5,5c-1.6,1.4-3.5,2.6-5.6,3.5
			c-2.2,0.9-4.5,1.6-6.8,2.1c-1.5,0.2-3,0.4-4.4,0.5c-0.6,0.1-1.2,0.2-1.8,0.2c-0.6,0.1-1.2,0.2-1.8,0.2c-0.6,0.1-1.1,0.1-1.7,0.2
			c-0.5,0.1-1,0.2-1.3,0.2c-1.5,0.3-3,0.6-4.6,0.8c-1.6,0.3-3.2,0.6-4.7,1c0.8-1.6,1.4-3.5,1.7-5.7c0.3-2.3,0.4-4.7,0.4-7.2
			c0-2.6-0.2-5.2-0.4-7.8c-0.3-2.7-0.6-5.1-1-7.4c-0.2-1-0.4-2.2-0.6-3.6c-0.3-1.4-0.6-2.9-0.9-4.4c-0.3-1.6-0.7-3.1-1.1-4.7
			c-0.4-1.6-0.9-3.1-1.4-4.4c-0.5-1.4-1-2.5-1.6-3.5c-0.6-1-1.2-1.7-1.8-2.1c1.7,0,3.3-0.1,4.9-0.3c1.6-0.2,2.9-0.3,4-0.5
			c1-0.2,1.8-0.3,2.6-0.5c0.7-0.2,1.5-0.3,2.2-0.5c0.7-0.2,1.5-0.3,2.2-0.5c0.8-0.2,1.6-0.3,2.6-0.5c1.5-0.2,3-0.4,4.6-0.5
			c1.5-0.1,3-0.1,4.5,0.1c1.4,0.1,2.8,0.4,4.1,0.9c1.3,0.4,2.5,1.1,3.5,1.9c1,0.9,1.9,2,2.7,3.3c0.7,1.3,1.3,3,1.6,4.9
			c0.2,1,0.2,2.1,0.1,3.1c-0.1,1.1-0.4,2.1-0.8,3.2c-0.4,1.1-1,2.1-1.8,3.2c-0.8,1-1.8,2.1-3.1,3.1c3.1,0.7,5.5,2,7,3.6
			C164.7,355.4,165.7,357.5,166.1,360.1z M143.4,347.9c0.4-0.4,0.9-1,1.4-1.6c0.5-0.7,1-1.4,1.4-2.2c0.4-0.8,0.8-1.6,1.1-2.4
			c0.3-0.8,0.3-1.6,0.2-2.2c-0.1-0.7-0.4-1.3-0.9-1.7c-0.5-0.4-1-0.5-1.5-0.5c-0.7,0.1-1.3,0.5-1.6,1.3c-0.3,0.7-0.5,1.6-0.6,2.5
			c-0.1,0.9-0.1,1.9,0,2.8c0.1,0.9,0.1,1.7,0.2,2.2c0,0.3,0.1,0.6,0.1,0.9C143.2,347.3,143.3,347.6,143.4,347.9z M150.7,364.2
			c-0.1-0.8-0.4-1.6-0.8-2.4c-0.4-0.8-0.8-1.6-1.4-2.3c-0.5-0.7-1.2-1.4-1.8-2.1c-0.7-0.7-1.3-1.3-2-1.9c-0.2,1.1-0.2,2.1-0.2,3.1
			c0.1,1,0.1,1.9,0.3,2.7c0.2,1.2,0.4,2.2,0.7,2.9c0.3,0.8,0.6,1.4,1,1.8c0.4,0.4,0.7,0.7,1.2,0.9c0.4,0.1,0.9,0.2,1.3,0.1
			c0.6-0.1,1-0.4,1.4-0.9C150.7,365.6,150.8,365,150.7,364.2z"/>
		<path class="st218" d="M188.1,331.3c0,1.3,0.1,2.5,0.2,3.7c0.1,1.1,0.3,2.3,0.5,3.5c0.2,1.2,0.4,2.3,0.6,3.4
			c0.2,1.1,0.5,2.2,0.9,3.2c-0.4-0.1-0.8-0.1-1.2,0c-0.4,0-0.8,0.1-1.3,0.1c-1.4,0.2-2.7,0.6-4.1,1.2c0.4,2.1,0.9,3.9,1.5,5.2
			c0.6,1.4,1.2,2.5,2,3.3c0.7,0.8,1.5,1.3,2.4,1.6c0.8,0.3,1.7,0.3,2.7,0.2c1.4-0.2,2.8-1,4-2.2c1.2-1.3,2.2-3,2.9-5.1l4.8,18.8
			c-0.8-0.1-1.8-0.1-2.9,0c-1.1,0-2.2,0.1-3.4,0.2c-1.2,0.1-2.4,0.3-3.5,0.4c-1.2,0.1-2.2,0.3-3.1,0.4c-0.9,0.1-1.7,0.2-2.3,0.3
			c-0.6,0.1-0.9,0.1-1,0.2c-1.4,0.3-3,0.6-4.6,0.9c-1.4,0.3-3,0.8-4.7,1.3c-1.8,0.5-3.6,1.1-5.6,1.8c0.2-2.7,0.3-5.9,0.2-9.4
			s-0.4-7.3-0.8-11.2c-1,0.7-1.9,1.4-2.9,2.2c-0.9,0.8-1.8,1.6-2.7,2.5c0-0.4,0.1-0.8,0-1.3c0-0.5,0-1-0.1-1.5s-0.1-1-0.2-1.5
			c-0.1-0.5-0.1-0.9-0.2-1.2c-0.2-1.3-0.5-2.6-0.8-3.9c-0.3-1.3-0.6-2.5-0.9-3.7c0.2,0,0.4,0,0.6,0c0.2,0,0.4-0.1,0.7-0.1
			c1.5-0.2,3.2-0.7,4.9-1.4c-0.4-2-0.7-3.9-1.1-5.7c-0.4-1.9-0.8-3.7-1.2-5.4c-0.4-1.7-0.9-3.3-1.4-4.8c-0.5-1.5-1-2.9-1.5-4.1
			c2.4,0.1,4.6,0,6.6-0.2c2-0.2,3.7-0.4,5.2-0.6c0.9-0.1,1.7-0.3,2.5-0.4c0.7-0.1,1.3-0.3,1.8-0.4c0.6-0.2,1.1-0.3,1.5-0.5
			c-0.4,2.3-0.6,4.7-0.7,7.4c-0.1,2.7-0.1,5.4,0.1,8.1c1.1-0.8,2.1-1.7,3-2.5C186.6,333.1,187.4,332.2,188.1,331.3z"/>
		<path class="st218" d="M245.9,361.5c-1.4,0-2.8,0.1-4.1,0.3c-1.3,0.1-2.7,0.3-4,0.5c-3.6,0.6-7.3,1.5-11,2.8
			c0.1-0.6,0.1-1.1,0.2-1.5c0.1-0.4,0.2-0.9,0.2-1.5c0.1-0.5,0.1-1.1,0.1-1.8c0-0.7-0.1-1.6-0.3-2.7c-0.2-1.1-0.4-2.1-0.7-3.1
			c-0.3-1-0.7-1.8-1.1-2.5c-0.4-0.7-0.9-1.3-1.5-1.6c-0.5-0.4-1.1-0.5-1.7-0.4c-0.7,0.1-1.2,0.4-1.6,0.9c-0.4,0.5-0.7,1.1-0.9,1.9
			c-0.2,0.8-0.3,1.6-0.2,2.5c0,0.9,0.1,1.9,0.3,2.9c0.2,1,0.4,1.9,0.6,2.6c0.2,0.7,0.5,1.3,0.7,1.9c0.3,0.5,0.5,1,0.7,1.4
			c0.2,0.4,0.4,0.8,0.5,1.2c-1.6,0.1-3.2,0.2-4.7,0.3c-1.5,0.1-3,0.3-4.5,0.6c-1.5,0.2-3,0.5-4.5,0.9c-1.5,0.3-3,0.7-4.6,1.2
			c0.8-4.3,1.4-8.6,1.8-12.8s0.7-8.4,0.8-12.6c0.1-4.2,0.1-8.4-0.1-12.6c-0.2-4.2-0.5-8.6-1-13c1.7,0,3.6-0.2,5.6-0.4
			c2-0.2,4.1-0.5,6.2-0.8c1.8-0.3,3.5-0.6,5.2-1c1.7-0.4,3.2-0.8,4.6-1.3c0.8,4.3,1.9,8.5,3.3,12.6c1.3,4.1,2.8,8.1,4.5,12.1
			c1.6,4,3.4,7.9,5.3,11.7C241.9,354,243.8,357.8,245.9,361.5z M222.6,338c-0.1-0.4-0.4-1-0.7-1.8c-0.3-0.7-0.8-1.6-1.4-2.7
			c-0.6-1.1-1.4-2.6-2.5-4.3c0,1.2,0,2.3-0.1,3.3c-0.1,1-0.2,1.8-0.3,2.6c-0.1,0.8-0.2,1.5-0.2,2.1c-0.1,0.6,0,1.2,0.1,1.8
			c0.2,1.1,0.6,2,1.2,2.5c0.6,0.5,1.3,0.8,1.9,0.7c0.7-0.1,1.2-0.5,1.6-1.3C222.6,340,222.7,339.1,222.6,338z"/>
		<path class="st218" d="M273.6,305.6c-0.2,1.4-0.5,3.1-1,5c-0.5,2-1.1,4.1-1.8,6.4c-0.7,2.3-1.4,4.8-2.2,7.4
			c-0.8,2.6-1.6,5.2-2.3,7.9c-0.7,2.7-1.4,5.3-2,7.9c-0.6,2.6-1.1,5.1-1.4,7.5c1.4-0.5,2.8-1.1,4.1-1.7c1.4-0.6,2.7-1.3,3.9-2.1
			c1.3-0.8,2.5-1.6,3.7-2.6c1.2-1,2.3-2.1,3.3-3.4c0.1,1.2,0.1,2.4,0.2,3.6c0.1,1.2,0.3,2.4,0.4,3.5c0.3,1.9,0.7,3.8,1.2,5.6
			c0.5,1.8,1.1,3.7,1.8,5.4c-2.9,0-5.9,0.2-9,0.5c-3.1,0.3-6.2,0.7-9.3,1.2c-3.2,0.5-6.3,1.1-9.4,1.8c-3.1,0.7-6.1,1.5-9,2.4
			c1.8-7.5,3.7-14.6,5.9-21.5c2.1-6.9,4.5-13.5,7.1-19.8c-2.8,0.6-5.6,1.6-8.4,2.9c-2.8,1.4-5.4,3.1-8,5c0-1.3-0.1-2.6-0.2-3.8
			c-0.1-1.2-0.2-2.4-0.4-3.6c-0.3-1.7-0.6-3.3-1.1-4.9c-0.4-1.6-1-3.1-1.7-4.6c2.5-0.1,5.1-0.3,7.7-0.6s5.3-0.6,8-1
			c3.4-0.5,6.8-1.2,10.2-2C267.3,307.4,270.5,306.5,273.6,305.6z"/>
		<path class="st218" d="M316.2,350.5c-1.2,0-2.5,0-3.7,0c-1.3,0.1-2.6,0.2-4,0.3c-1.4,0.2-2.9,0.3-4.4,0.6
			c-1.6,0.2-3.3,0.5-5.1,0.8c-0.9,0.1-1.9,0.3-3.1,0.5c-1.2,0.2-2.5,0.5-3.8,0.8c-1.4,0.3-2.8,0.7-4.2,1.1c-1.4,0.4-2.8,0.8-4.2,1.3
			c0.3-1.1,0.6-2.5,0.7-4.1c0.1-1.6,0.2-3.3,0.1-5.1c0-1.8-0.1-3.6-0.3-5.4c-0.2-1.8-0.3-3.6-0.5-5.1c-0.2-1.6-0.4-2.9-0.5-4.1
			c-0.2-1.2-0.3-1.9-0.4-2.4c0-0.1-0.1-0.4-0.2-1.1c-0.1-0.6-0.3-1.4-0.4-2.4c-0.2-1-0.4-2.1-0.6-3.3c-0.2-1.3-0.5-2.6-0.8-3.9
			c-0.3-1.4-0.6-2.7-1-4.1c-0.3-1.4-0.7-2.7-1.1-3.9c-0.4-1.2-0.7-2.3-1.1-3.3c-0.4-1-0.8-1.7-1.1-2.3c2.3,0,4.5-0.1,6.7-0.3
			c2.2-0.2,4.3-0.5,6.3-0.8c2.5-0.4,4.8-0.8,6.9-1.3c2.1-0.5,4-0.9,5.6-1.4c1.9-0.5,3.5-1,5-1.5l2.5,16c-1.5-1-2.9-1.8-4.2-2.2
			c-1.3-0.5-2.5-0.8-3.4-1c-1.1-0.2-2.2-0.2-3.2-0.1c-1.1,0.2-2,0.5-2.7,0.9c-0.7,0.4-1.2,0.9-1.5,1.4c-0.3,0.5-0.5,1.1-0.6,1.6
			c0,0.6,0,1.2,0.1,1.7c0.1,0.6,0.3,1.2,0.5,1.7c0.3,0.6,0.6,1.1,1.1,1.5c0.4,0.4,1,0.7,1.6,1c0.6,0.2,1.3,0.3,2.1,0.1
			c0.7-0.1,1.2-0.4,1.7-0.7c0.5-0.4,0.9-0.8,1.2-1.3c0.4-0.5,0.7-1.1,1-1.7l2.2,13.9c-0.5-0.8-1-1.4-1.6-1.8
			c-0.6-0.4-1.1-0.7-1.6-0.9c-0.5-0.2-0.9-0.2-1.3-0.2c-0.4,0-0.6,0-0.8,0c-1.5,0.2-2.5,0.9-3.1,1.9c-0.6,1-0.8,2.3-0.5,3.7
			c0.2,1,0.4,1.9,0.8,2.6c0.4,0.7,0.8,1.2,1.2,1.6c0.5,0.4,1,0.6,1.6,0.8c0.6,0.1,1.1,0.1,1.7,0c0.9-0.1,1.9-0.5,2.8-1.1
			c1-0.6,1.9-1.3,2.8-2.1c0.9-0.8,1.6-1.8,2.3-2.8c0.7-1,1.2-2,1.5-3L316.2,350.5z"/>
		<path class="st218" d="M338.5,346.3c-0.4,0-1,0.1-1.6,0.1c-0.5,0-1.1,0.1-1.8,0.2c-0.7,0.1-1.5,0.2-2.4,0.3
			c-1.8,0.3-3.8,0.7-6.2,1.2c-2.4,0.5-4.9,1.3-7.7,2.2c0.3-1.1,0.6-2.5,0.7-4.1c0.1-1.6,0.2-3.4,0.1-5.2c0-1.8-0.1-3.7-0.3-5.5
			c-0.2-1.9-0.3-3.6-0.5-5.2c-0.2-1.6-0.4-3-0.5-4.1c-0.2-1.2-0.3-2-0.4-2.4c0-0.1-0.1-0.4-0.2-1.1c-0.1-0.6-0.3-1.4-0.4-2.4
			c-0.2-1-0.4-2.1-0.6-3.3c-0.2-1.3-0.5-2.6-0.8-3.9c-0.3-1.4-0.6-2.7-1-4.1c-0.3-1.4-0.7-2.7-1.1-3.9c-0.4-1.2-0.7-2.3-1.1-3.2
			c-0.4-1-0.8-1.7-1.1-2.2c2.4,0,4.5,0,6.4-0.2c1.9-0.2,3.6-0.4,5.1-0.6c1-0.2,1.9-0.3,2.7-0.5c0.8-0.2,1.4-0.3,1.9-0.4
			c0.6-0.2,1.1-0.3,1.6-0.5c1.7,4.7,3.6,9,5.5,12.9c1.9,3.9,3.9,7.5,6,10.8l-0.2-1.4c-0.7-3.7-1.3-7.1-2-10.3
			c-0.3-1.4-0.6-2.7-1-4.1c-0.3-1.4-0.7-2.7-1-3.9c-0.4-1.2-0.7-2.3-1.1-3.2c-0.4-1-0.8-1.7-1.1-2.2c2.3,0.1,4.5,0,6.4-0.2
			c1.9-0.2,3.7-0.4,5.1-0.6c1-0.2,1.9-0.3,2.7-0.5c0.8-0.2,1.4-0.3,1.9-0.4c0.6-0.2,1.1-0.3,1.6-0.5c-0.1,1.3-0.1,2.8,0,4.4
			c0,1.6,0.1,3.3,0.2,5.1c0.1,1.8,0.3,3.7,0.5,5.7c0.2,2,0.5,4,0.8,6.1c0.4,2.3,0.8,4.7,1.3,7.1c0.5,2.4,1.1,4.8,1.7,7.2
			c0.6,2.4,1.3,4.7,2.1,6.9c0.8,2.2,1.6,4.4,2.5,6.4c-0.4,0-0.9,0.1-1.5,0.1c-0.5,0-1.1,0.1-1.8,0.2c-0.7,0.1-1.5,0.2-2.3,0.3
			c-1.6,0.3-3.5,0.6-5.6,1.1c-2.1,0.5-4.4,1.2-6.8,2c-0.4-2.3-0.9-4.6-1.7-6.8c-0.7-2.2-1.6-4.3-2.6-6.4c-1-2.1-2.2-4.1-3.5-6
			c-1.3-1.9-2.7-3.8-4.2-5.7c0.4,2.1,0.8,4.3,1.3,6.4c0.5,2.2,1,4.3,1.6,6.4c0.6,2.1,1.3,4.1,2,6.1
			C336.9,342.5,337.7,344.4,338.5,346.3z"/>
	</g>
</g>
<g id="Warstwa_3">
</g>
</svg>
